<svg width="1112" height="686" viewBox="0 0 1112 686" fill="none" xmlns="http://www.w3.org/2000/svg">
<g clip-path="url(#clip0_1215_1175)">
<path d="M1113 687H-1V-1H1113L1113 687ZM0.439897 685.58H1111.56V0.419531H0.439897V685.58Z" fill="#E6F0F5" fill-opacity="0.7"/>
<path d="M1112.28 651.252H-0.281006V652.671H1112.28V651.252Z" fill="#E6F0F5" fill-opacity="0.7"/>
<path d="M1112.28 616.922H-0.281494V618.342H1112.28V616.922Z" fill="#E6F0F5" fill-opacity="0.7"/>
<path d="M1112.28 582.593H-0.281494V584.012H1112.28V582.593Z" fill="#E6F0F5" fill-opacity="0.7"/>
<path d="M1112.28 548.264H-0.281494V549.684H1112.28V548.264Z" fill="#E6F0F5" fill-opacity="0.7"/>
<path d="M1112.28 513.934H-0.281494V515.354H1112.28V513.934Z" fill="#E6F0F5" fill-opacity="0.7"/>
<path d="M1112.28 479.606H-0.281494V481.025H1112.28V479.606Z" fill="#E6F0F5" fill-opacity="0.7"/>
<path d="M1112.28 445.277H-0.281494V446.697H1112.28V445.277Z" fill="#E6F0F5" fill-opacity="0.7"/>
<path d="M1112.28 410.949H-0.281006V412.368H1112.28V410.949Z" fill="#E6F0F5" fill-opacity="0.7"/>
<path d="M1112.28 376.617H-0.281006V378.037H1112.28V376.617Z" fill="#E6F0F5" fill-opacity="0.7"/>
<path d="M1112.28 342.29H-0.281006V343.709H1112.28V342.29Z" fill="#E6F0F5" fill-opacity="0.7"/>
<path d="M1112.28 307.961H-0.281494V309.381H1112.28V307.961Z" fill="#E6F0F5" fill-opacity="0.7"/>
<path d="M1112.28 273.632H-0.281494V275.051H1112.28V273.632Z" fill="#E6F0F5" fill-opacity="0.7"/>
<path d="M1112.28 239.303H-0.281006V240.722H1112.28V239.303Z" fill="#E6F0F5" fill-opacity="0.7"/>
<path d="M1112.28 204.973H-0.281494V206.393H1112.28V204.973Z" fill="#E6F0F5" fill-opacity="0.7"/>
<path d="M1112.28 170.645H-0.281494V172.064H1112.28V170.645Z" fill="#E6F0F5" fill-opacity="0.7"/>
<path d="M1112.28 136.316H-0.281494V137.736H1112.28V136.316Z" fill="#E6F0F5" fill-opacity="0.7"/>
<path d="M1112.28 101.987H-0.281494V103.406H1112.28V101.987Z" fill="#E6F0F5" fill-opacity="0.7"/>
<path d="M1112.28 67.6582H-0.281006V69.0777H1112.28V67.6582Z" fill="#E6F0F5" fill-opacity="0.7"/>
<path d="M1112.28 33.3287H-0.281494V34.7483H1112.28V33.3287Z" fill="#E6F0F5" fill-opacity="0.7"/>
<path d="M1079.29 -0.290527H1077.85V686.29H1079.29V-0.290527Z" fill="#E6F0F5" fill-opacity="0.7"/>
<path d="M1045.57 -0.290527H1044.13V686.29H1045.57V-0.290527Z" fill="#E6F0F5" fill-opacity="0.7"/>
<path d="M1011.85 -0.290527H1010.41V686.29H1011.85V-0.290527Z" fill="#E6F0F5" fill-opacity="0.7"/>
<path d="M978.143 -0.290527H976.703V686.29H978.143V-0.290527Z" fill="#E6F0F5" fill-opacity="0.7"/>
<path d="M944.431 -0.290527H942.991V686.29H944.431V-0.290527Z" fill="#E6F0F5" fill-opacity="0.7"/>
<path d="M910.716 -0.290527H909.276V686.29H910.716V-0.290527Z" fill="#E6F0F5" fill-opacity="0.7"/>
<path d="M877.008 -0.290527H875.568V686.29H877.008V-0.290527Z" fill="#E6F0F5" fill-opacity="0.7"/>
<path d="M843.289 -0.290527H841.849V686.29H843.289V-0.290527Z" fill="#E6F0F5" fill-opacity="0.7"/>
<path d="M809.573 -0.290527H808.134V686.29H809.573V-0.290527Z" fill="#E6F0F5" fill-opacity="0.7"/>
<path d="M775.862 -0.290527H774.422V686.29H775.862V-0.290527Z" fill="#E6F0F5" fill-opacity="0.7"/>
<path d="M742.146 -0.290527H740.707V686.29H742.146V-0.290527Z" fill="#E6F0F5" fill-opacity="0.7"/>
<path d="M708.431 -0.290527H706.991V686.29H708.431V-0.290527Z" fill="#E6F0F5" fill-opacity="0.7"/>
<path d="M674.719 -0.290527H673.279V686.29H674.719V-0.290527Z" fill="#E6F0F5" fill-opacity="0.7"/>
<path d="M641.003 -0.290527H639.563V686.29H641.003V-0.290527Z" fill="#E6F0F5" fill-opacity="0.7"/>
<path d="M607.292 -0.290527H605.852V686.29H607.292V-0.290527Z" fill="#E6F0F5" fill-opacity="0.7"/>
<path d="M573.58 -0.290527H572.14V686.29H573.58V-0.290527Z" fill="#E6F0F5" fill-opacity="0.7"/>
<path d="M539.868 -0.290527H538.428V686.29H539.868V-0.290527Z" fill="#E6F0F5" fill-opacity="0.7"/>
<path d="M506.149 -0.290527H504.709V686.29H506.149V-0.290527Z" fill="#E6F0F5" fill-opacity="0.7"/>
<path d="M472.434 -0.290527H470.994V686.29H472.434V-0.290527Z" fill="#E6F0F5" fill-opacity="0.7"/>
<path d="M438.722 -0.290527H437.282V686.29H438.722V-0.290527Z" fill="#E6F0F5" fill-opacity="0.7"/>
<path d="M405.01 -0.290527H403.57V686.29H405.01V-0.290527Z" fill="#E6F0F5" fill-opacity="0.7"/>
<path d="M371.291 -0.290527H369.851V686.29H371.291V-0.290527Z" fill="#E6F0F5" fill-opacity="0.7"/>
<path d="M337.575 -0.290527H336.135V686.29H337.575V-0.290527Z" fill="#E6F0F5" fill-opacity="0.7"/>
<path d="M303.864 -0.290527H302.424V686.29H303.864V-0.290527Z" fill="#E6F0F5" fill-opacity="0.7"/>
<path d="M270.152 -0.290527H268.712V686.29H270.152V-0.290527Z" fill="#E6F0F5" fill-opacity="0.7"/>
<path d="M236.441 -0.290527H235.001V686.29H236.441V-0.290527Z" fill="#E6F0F5" fill-opacity="0.7"/>
<path d="M202.717 -0.290527H201.277V686.29H202.717V-0.290527Z" fill="#E6F0F5" fill-opacity="0.7"/>
<path d="M169.01 -0.290527H167.57V686.29H169.01V-0.290527Z" fill="#E6F0F5" fill-opacity="0.7"/>
<path d="M135.294 -0.290527H133.854V686.29H135.294V-0.290527Z" fill="#E6F0F5" fill-opacity="0.7"/>
<path d="M101.582 -0.290527H100.142V686.29H101.582V-0.290527Z" fill="#E6F0F5" fill-opacity="0.7"/>
<path d="M67.8708 -0.290527H66.4309V686.29H67.8708V-0.290527Z" fill="#E6F0F5" fill-opacity="0.7"/>
<path d="M34.1513 -0.290527H32.7114V686.29H34.1513V-0.290527Z" fill="#E6F0F5" fill-opacity="0.7"/>
</g>
<defs>
<clipPath id="clip0_1215_1175">
<rect width="1112" height="686" fill="white"/>
</clipPath>
</defs>
</svg>
