<svg width="617" height="509" viewBox="0 0 617 509" fill="none" xmlns="http://www.w3.org/2000/svg">
<path d="M0.103211 199.405C-0.125262 202.342 2.07015 204.908 5.00679 205.136C7.94344 205.365 10.5093 203.169 10.7377 200.233C10.9662 197.296 8.77081 194.73 5.83416 194.502C2.89752 194.273 0.331683 196.469 0.103211 199.405ZM192.025 373.316L191.313 372.614L191.299 372.628L191.286 372.642L192.025 373.316ZM605.516 320.731C605.288 323.667 607.483 326.233 610.42 326.462C613.357 326.69 615.922 324.495 616.151 321.558C616.379 318.622 614.184 316.056 611.247 315.827C608.311 315.599 605.745 317.794 605.516 320.731ZM5.42048 199.819L6.15534 200.497C6.6969 199.91 7.24588 199.319 7.80221 198.722L7.07077 198.04L6.33933 197.358C5.78075 197.957 5.22948 198.552 4.68562 199.141L5.42048 199.819ZM10.5029 194.395L11.2277 195.084C12.3442 193.909 13.4869 192.718 14.6552 191.511L13.9366 190.815L13.2179 190.12C12.0456 191.331 10.8988 192.527 9.77816 193.706L10.5029 194.395ZM17.4465 187.219L18.1592 187.92C19.2977 186.764 20.4582 185.594 21.6402 184.411L20.933 183.704L20.2259 182.997C19.0402 184.183 17.876 185.357 16.7337 186.518L17.4465 187.219ZM24.4956 180.168L25.1975 180.88C26.3589 179.736 27.5394 178.581 28.7385 177.417L28.0418 176.699L27.3451 175.982C26.1426 177.15 24.9587 178.308 23.7938 179.456L24.4956 180.168ZM31.6422 173.227L32.3339 173.949C33.5193 172.814 34.7215 171.67 35.9402 170.519L35.2534 169.792L34.5666 169.065C33.3447 170.22 32.1392 171.367 30.9506 172.505L31.6422 173.227ZM38.8831 166.385L39.5651 167.116C40.7749 165.988 41.9999 164.853 43.2397 163.711L42.5624 162.976L41.8851 162.24C40.6421 163.384 39.414 164.522 38.201 165.653L38.8831 166.385ZM46.2167 159.632L46.8894 160.372C48.1197 159.254 49.3638 158.129 50.6212 157L49.9531 156.256L49.285 155.512C48.0245 156.644 46.7774 157.771 45.5439 158.892L46.2167 159.632ZM53.642 152.964L54.3056 153.712C55.542 152.616 56.7907 151.515 58.0513 150.41L57.3922 149.658L56.7331 148.906C55.4695 150.013 54.2178 151.117 52.9784 152.216L53.642 152.964ZM61.1577 146.378L61.8123 147.134C63.0549 146.058 64.3085 144.979 65.5729 143.897L64.9228 143.137L64.2726 142.377C63.0053 143.462 61.7487 144.543 60.5031 145.622L61.1577 146.378ZM68.7526 139.88L69.3982 140.644C70.6504 139.585 71.9127 138.524 73.1847 137.462L72.5436 136.694L71.9024 135.927C70.6274 136.992 69.3622 138.055 68.107 139.116L68.7526 139.88ZM76.3842 133.505L77.0208 134.276C78.2994 133.22 79.5874 132.163 80.8846 131.105L80.2525 130.33L79.6204 129.555C78.3202 130.616 77.0291 131.676 75.7476 132.734L76.3842 133.505ZM84.1074 127.205L84.735 127.983C86.0272 126.941 87.3282 125.899 88.6377 124.856L88.0147 124.074L87.3917 123.292C86.0791 124.337 84.7751 125.382 83.4798 126.426L84.1074 127.205ZM91.9194 120.983L92.5377 121.769C93.8352 120.748 95.1406 119.727 96.4539 118.706L95.8402 117.916L95.2264 117.127C93.91 118.15 92.6015 119.174 91.301 120.197L91.9194 120.983ZM99.8081 114.851L100.417 115.644C101.724 114.641 103.038 113.638 104.359 112.636L103.755 111.839L103.151 111.042C101.826 112.047 100.509 113.052 99.1991 114.058L99.8081 114.851ZM107.737 108.838L108.337 109.638C109.668 108.642 111.005 107.646 112.35 106.651L111.756 105.847L111.161 105.043C109.813 106.04 108.472 107.038 107.138 108.037L107.737 108.838ZM115.757 102.908L116.346 103.715C117.685 102.738 119.03 101.762 120.382 100.788L119.797 99.9771L119.212 99.1658C117.857 100.142 116.509 101.12 115.167 102.1L115.757 102.908ZM123.861 97.0674L124.441 97.8823C125.787 96.9252 127.139 95.97 128.497 95.0172L127.922 94.1986L127.348 93.3801C125.987 94.3353 124.631 95.2929 123.282 96.2525L123.861 97.0674ZM132.019 91.3437L132.588 92.1659C133.952 91.2219 135.322 90.2804 136.697 89.3417L136.133 88.5158L135.569 87.6899C134.19 88.631 132.817 89.5749 131.45 90.5214L132.019 91.3437ZM140.253 85.7233L140.811 86.5529C142.188 85.6263 143.57 84.7026 144.958 83.7823L144.405 82.949L143.852 82.1156C142.461 83.0385 141.075 83.9646 139.694 84.8937L140.253 85.7233ZM148.571 80.2053L149.118 81.0423C150.504 80.1364 151.895 79.234 153.291 78.3353L152.749 77.4945L152.208 76.6538C150.808 77.555 149.414 78.4599 148.024 79.3683L148.571 80.2053ZM156.956 74.8061L157.492 75.6506C158.892 74.7626 160.297 73.8786 161.707 72.9988L161.177 72.1505L160.648 71.3021C159.234 72.1845 157.825 73.0711 156.421 73.9616L156.956 74.8061ZM165.414 69.5272L165.937 70.3793C167.352 69.5105 168.77 68.6461 170.193 67.7864L169.676 66.9305L169.159 66.0745C167.732 66.9368 166.309 67.8038 164.89 68.6751L165.414 69.5272ZM173.954 64.3678L174.465 65.2276C175.89 64.3808 177.32 63.5389 178.753 62.7021L178.249 61.8385L177.745 60.9749C176.307 61.8142 174.873 62.6587 173.443 63.5081L173.954 64.3678ZM182.568 59.3398L183.065 60.2073C184.505 59.382 185.948 58.5621 187.394 57.7477L186.904 56.8763L186.413 56.0049C184.962 56.8219 183.514 57.6444 182.07 58.4723L182.568 59.3398ZM191.258 54.448L191.742 55.3234C193.195 54.521 194.651 53.7244 196.11 52.9339L195.634 52.0546L195.158 51.1753C193.693 51.9684 192.232 52.7677 190.775 53.5727L191.258 54.448ZM200.03 49.6976L200.498 50.5809C201.964 49.8027 203.433 49.0309 204.906 48.2656L204.444 47.3783L203.983 46.4911C202.506 47.259 201.032 48.0335 199.561 48.8143L200.03 49.6976ZM208.878 45.0983L209.331 45.9896C210.811 45.2367 212.294 44.4906 213.78 43.7515L213.334 42.8562L212.889 41.9609C211.398 42.7026 209.91 43.4514 208.424 44.207L208.878 45.0983ZM217.81 40.6552L218.247 41.5546C219.739 40.8294 221.234 40.1116 222.731 39.4013L222.302 38.4978L221.873 37.5944C220.371 38.3074 218.87 39.028 217.373 39.7558L217.81 40.6552ZM226.821 36.3803L227.241 37.2878C228.748 36.5905 230.257 35.9009 231.769 35.2194L231.358 34.3078L230.947 33.3961C229.429 34.0804 227.914 34.7726 226.401 35.4727L226.821 36.3803ZM235.909 32.2837L236.311 33.1994C237.833 32.5317 239.357 31.8723 240.883 31.2215L240.491 30.3017L240.099 29.3818C238.566 30.0353 237.035 30.6974 235.507 31.3679L235.909 32.2837ZM245.089 28.3695L245.472 29.2935C247.003 28.6596 248.537 28.0346 250.072 27.4187L249.7 26.4906L249.327 25.5625C247.785 26.1811 246.245 26.8089 244.707 27.4455L245.089 28.3695ZM254.346 24.6567L254.707 25.5889C256.256 24.9879 257.805 24.3963 259.356 23.8145L259.005 22.8782L258.654 21.9419C257.096 22.5264 255.539 23.1207 253.984 23.7245L254.346 24.6567ZM263.674 21.1581L264.014 22.0985C265.579 21.5324 267.145 20.9765 268.713 20.4309L268.384 19.4865L268.056 18.5421C266.48 19.0903 264.906 19.649 263.334 20.2178L263.674 21.1581ZM273.104 17.8767L273.421 18.8251C274.992 18.3002 276.564 17.7859 278.137 17.2826L277.832 16.3302L277.527 15.3777C275.946 15.8837 274.366 16.4006 272.787 16.9282L273.104 17.8767ZM282.604 14.8376L282.896 15.7939C284.483 15.309 286.071 14.8354 287.66 14.3735L287.381 13.4132L287.101 12.453C285.504 12.9175 283.907 13.3937 282.312 13.8812L282.604 14.8376ZM292.169 12.0566L292.435 13.0206C294.04 12.5781 295.645 12.1478 297.25 11.7298L296.998 10.7621L296.746 9.79437C295.131 10.2148 293.517 10.6476 291.904 11.0926L292.169 12.0566ZM301.828 9.54203L302.066 10.5134C303.677 10.1192 305.288 9.73771 306.899 9.36925L306.676 8.39443L306.453 7.4196C304.832 7.79034 303.211 8.17413 301.591 8.57069L301.828 9.54203ZM311.555 7.31833L311.763 8.29653C313.384 7.95231 315.005 7.62155 316.625 7.30452L316.434 6.32312L316.242 5.34172C314.61 5.66083 312.979 5.99373 311.347 6.34014L311.555 7.31833ZM321.335 5.40605L321.511 6.39049C323.147 6.09848 324.782 5.82077 326.417 5.55762L326.258 4.57033L326.099 3.58304C324.453 3.84801 322.806 4.12764 321.16 4.42161L321.335 5.40605ZM331.177 3.82226L331.319 4.81217C332.963 4.57683 334.607 4.35656 336.25 4.15163L336.126 3.15932L336.002 2.16702C334.347 2.37345 332.692 2.59532 331.035 2.83234L331.177 3.82226ZM341.082 2.5874L341.187 3.58183C342.832 3.40752 344.476 3.24894 346.118 3.10638L346.032 2.11013L345.945 1.11387C344.29 1.25754 342.634 1.41734 340.977 1.59296L341.082 2.5874ZM351.016 1.72649L351.082 2.72425C352.736 2.61333 354.389 2.519 356.039 2.44158L355.993 1.44268L355.946 0.443778C354.281 0.521832 352.616 0.616922 350.949 0.728735L351.016 1.72649ZM360.968 1.26046L360.994 2.26012C362.654 2.21653 364.311 2.19042 365.967 2.18207L365.962 1.18208L365.957 0.182097C364.287 0.190513 362.615 0.216857 360.942 0.260807L360.968 1.26046ZM370.944 1.21079L370.927 2.21066C371.753 2.22441 372.578 2.24268 373.402 2.26552L373.43 1.2659L373.458 0.266286C372.626 0.243248 371.793 0.224811 370.96 0.210934L370.944 1.21079ZM373.43 1.2659L373.402 2.26552C374.296 2.29026 375.176 2.32437 376.042 2.36772L376.092 1.36898L376.142 0.370228C375.261 0.326105 374.366 0.291432 373.458 0.266286L373.43 1.2659ZM381.172 1.74294L381.074 2.73812C382.697 2.89807 384.266 3.09419 385.781 3.32565L385.932 2.33711L386.083 1.34858C384.531 1.11148 382.927 0.911013 381.27 0.747766L381.172 1.74294ZM391.064 3.29727L390.845 4.27305C392.462 4.63553 394.009 5.04418 395.486 5.49763L395.779 4.54164L396.073 3.58565C394.543 3.11626 392.947 2.69459 391.283 2.32148L391.064 3.29727ZM400.602 6.27482L400.217 7.19769C401.738 7.83241 403.17 8.52408 404.515 9.27057L405 8.39609L405.485 7.52162C404.072 6.73736 402.573 6.01372 400.987 5.35196L400.602 6.27482ZM409.292 11.1646L408.693 11.9651C410.009 12.9499 411.217 14.0032 412.323 15.1226L413.034 14.4199L413.746 13.7173C412.569 12.5254 411.285 11.4069 409.892 10.364L409.292 11.1646ZM416.265 18.2603L415.451 18.8407C416.384 20.1501 417.211 21.5308 417.934 22.9809L418.829 22.5345L419.724 22.0881C418.955 20.5468 418.075 19.0762 417.08 17.6799L416.265 18.2603ZM420.737 27.194L419.787 27.5062C420.282 29.0106 420.686 30.5767 421.003 32.2027L421.984 32.0116L422.966 31.8205C422.634 30.1173 422.209 28.4701 421.688 26.8819L420.737 27.194ZM422.671 36.9784L421.675 37.064C421.812 38.6624 421.877 40.3097 421.871 42.0041L422.871 42.0077L423.871 42.0113C423.877 40.2614 423.81 38.5545 423.667 36.8929L422.671 36.9784ZM422.664 46.9881L421.667 46.911C421.542 48.5285 421.36 50.1832 421.122 51.8737L422.112 52.0129L423.103 52.1522C423.346 50.423 423.532 48.7269 423.661 47.0652L422.664 46.9881ZM421.286 56.9316L420.304 56.741C419.995 58.3362 419.64 59.9597 419.242 61.6103L420.214 61.8447L421.186 62.0791C421.591 60.4011 421.952 58.7484 422.268 57.1222L421.286 56.9316ZM418.935 66.7219L417.973 66.45C417.534 68.0051 417.059 69.5818 416.549 71.1794L417.502 71.4832L418.455 71.7869C418.971 70.1692 419.452 68.5712 419.898 66.9937L418.935 66.7219ZM415.865 76.3563L414.922 76.0239C414.39 77.5337 413.83 79.0605 413.241 80.6036L414.176 80.9598L415.11 81.3161C415.704 79.7579 416.271 78.2151 416.809 76.6886L415.865 76.3563ZM412.319 85.6591L411.393 85.281C410.769 86.8107 410.118 88.3552 409.443 89.9138L410.361 90.3113L411.278 90.7089C411.959 89.1378 412.615 87.5804 413.245 86.0372L412.319 85.6591ZM408.346 94.8432L407.436 94.4286C406.745 95.9461 406.031 97.4761 405.296 99.018L406.198 99.4484L407.101 99.8788C407.841 98.3268 408.56 96.7863 409.256 95.2578L408.346 94.8432ZM404.008 103.95L403.112 103.505C402.384 104.973 401.637 106.45 400.872 107.937L401.761 108.394L402.651 108.852C403.42 107.356 404.171 105.871 404.903 104.394L404.008 103.95ZM399.408 112.896L398.524 112.426C397.75 113.883 396.959 115.349 396.153 116.823L397.03 117.303L397.907 117.783C398.718 116.302 399.512 114.829 400.291 113.365L399.408 112.896ZM394.614 121.657L393.742 121.167C392.923 122.623 392.09 124.086 391.242 125.556L392.109 126.056L392.975 126.555C393.826 125.079 394.663 123.609 395.485 122.147L394.614 121.657ZM389.57 130.408L388.709 129.9C387.874 131.314 387.027 132.734 386.168 134.16L387.024 134.676L387.881 135.192C388.743 133.761 389.593 132.336 390.431 130.916L389.57 130.408ZM384.404 138.979L383.553 138.455C382.672 139.887 381.78 141.325 380.876 142.767L381.723 143.298L382.571 143.829C383.477 142.382 384.373 140.94 385.256 139.503L384.404 138.979ZM379.075 147.488L378.232 146.95C377.34 148.349 376.438 149.753 375.526 151.161L376.365 151.705L377.204 152.248C378.119 150.836 379.024 149.429 379.918 148.026L379.075 147.488ZM373.594 155.947L372.759 155.397C371.847 156.783 370.925 158.172 369.994 159.566L370.826 160.121L371.658 160.677C372.591 159.28 373.515 157.886 374.429 156.496L373.594 155.947ZM368.041 164.262L367.213 163.701C366.277 165.083 365.333 166.468 364.38 167.856L365.205 168.422L366.029 168.987C366.984 167.596 367.931 166.208 368.869 164.822L368.041 164.262ZM362.322 172.596L361.501 172.025C360.559 173.379 359.611 174.736 358.655 176.095L359.473 176.671L360.291 177.246C361.249 175.884 362.2 174.524 363.143 173.166L362.322 172.596ZM356.58 180.76L355.765 180.18C354.795 181.544 353.817 182.91 352.833 184.278L353.645 184.862L354.457 185.446C355.443 184.075 356.422 182.706 357.395 181.34L356.58 180.76ZM350.693 188.944L349.884 188.356C348.91 189.697 347.929 191.039 346.942 192.382L347.748 192.974L348.554 193.566C349.543 192.22 350.525 190.875 351.502 189.532L350.693 188.944ZM344.769 197.012L343.965 196.417C342.967 197.763 341.963 199.11 340.954 200.459L341.755 201.058L342.555 201.657C343.566 200.306 344.572 198.957 345.572 197.608L344.769 197.012ZM338.737 205.071L337.939 204.468C336.937 205.795 335.93 207.122 334.919 208.45L335.714 209.056L336.51 209.662C337.523 208.332 338.532 207.002 339.535 205.673L338.737 205.071ZM332.662 213.045L331.869 212.436C330.848 213.765 329.822 215.094 328.792 216.424L329.583 217.037L330.373 217.649C331.405 216.317 332.432 214.986 333.455 213.654L332.662 213.045ZM326.504 220.995L325.716 220.379C324.691 221.693 323.661 223.006 322.628 224.32L323.413 224.938L324.199 225.556C325.234 224.241 326.265 222.926 327.292 221.61L326.504 220.995ZM320.3 228.88L319.516 228.259C318.476 229.572 317.432 230.884 316.384 232.196L317.165 232.82L317.947 233.444C318.996 232.13 320.042 230.816 321.084 229.501L320.3 228.88ZM314.029 236.734L313.25 236.107C312.204 237.408 311.155 238.708 310.102 240.008L310.88 240.637L311.657 241.266C312.71 239.965 313.761 238.663 314.809 237.36L314.029 236.734ZM307.713 244.535L306.938 243.903C305.88 245.201 304.82 246.497 303.757 247.792L304.53 248.426L305.303 249.061C306.367 247.764 307.429 246.466 308.488 245.167L307.713 244.535ZM301.34 252.302L300.569 251.665C299.504 252.955 298.437 254.243 297.368 255.529L298.137 256.168L298.906 256.807C299.976 255.519 301.045 254.23 302.111 252.939L301.34 252.302ZM294.923 260.024L294.156 259.383C293.083 260.665 292.009 261.946 290.933 263.225L291.698 263.869L292.463 264.513C293.541 263.232 294.616 261.95 295.69 260.666L294.923 260.024ZM288.456 267.712L287.693 267.066C286.611 268.344 285.528 269.62 284.444 270.894L285.206 271.542L285.967 272.19C287.052 270.915 288.137 269.638 289.22 268.358L288.456 267.712ZM281.949 275.358L281.189 274.708C280.103 275.977 279.016 277.243 277.928 278.506L278.686 279.159L279.444 279.811C280.533 278.546 281.621 277.278 282.708 276.008L281.949 275.358ZM275.394 282.972L274.638 282.318C273.541 283.585 272.443 284.85 271.345 286.111L272.1 286.768L272.854 287.424C273.953 286.162 275.052 284.896 276.15 283.627L275.394 282.972ZM268.804 290.544L268.051 289.886C266.952 291.143 265.852 292.396 264.752 293.646L265.503 294.306L266.254 294.967C267.355 293.716 268.456 292.461 269.556 291.203L268.804 290.544ZM262.166 298.09L261.416 297.428C260.305 298.685 259.194 299.938 258.083 301.187L258.831 301.851L259.578 302.516C260.69 301.265 261.802 300.011 262.915 298.753L262.166 298.09ZM255.5 305.588L254.754 304.922C253.64 306.169 252.527 307.411 251.414 308.649L252.158 309.318L252.902 309.986C254.016 308.746 255.13 307.502 256.246 306.254L255.5 305.588ZM248.778 313.071L248.036 312.401C246.911 313.647 245.788 314.888 244.666 316.123L245.407 316.795L246.147 317.468C247.27 316.23 248.394 314.988 249.52 313.741L248.778 313.071ZM242.046 320.49L241.307 319.816C240.175 321.057 239.046 322.292 237.919 323.521L238.656 324.197L239.393 324.873C240.521 323.642 241.652 322.406 242.784 321.164L242.046 320.49ZM235.238 327.916L234.502 327.239C233.366 328.472 232.232 329.699 231.101 330.92L231.835 331.6L232.569 332.279C233.701 331.057 234.836 329.828 235.973 328.594L235.238 327.916ZM228.449 335.247L227.717 334.565C226.564 335.804 225.414 337.037 224.268 338.262L224.998 338.945L225.728 339.628C226.876 338.402 228.027 337.168 229.181 335.928L228.449 335.247ZM221.548 342.623L220.82 341.938C219.674 343.156 218.532 344.367 217.395 345.571L218.121 346.258L218.848 346.945C219.987 345.74 221.13 344.528 222.277 343.308L221.548 342.623ZM214.69 349.879L213.965 349.19C212.793 350.424 211.626 351.649 210.464 352.865L211.187 353.556L211.91 354.247C213.073 353.029 214.241 351.803 215.415 350.568L214.69 349.879ZM207.715 357.181L206.993 356.489C205.842 357.687 204.696 358.878 203.556 360.058L204.275 360.753L204.995 361.448C206.136 360.265 207.283 359.074 208.436 357.874L207.715 357.181ZM200.747 364.397L200.03 363.7C198.85 364.915 197.677 366.12 196.511 367.314L197.226 368.013L197.942 368.711C199.109 367.516 200.284 366.31 201.465 365.093L200.747 364.397ZM193.748 371.564L193.035 370.864C192.459 371.45 191.885 372.033 191.313 372.614L192.025 373.316L192.738 374.018C193.31 373.436 193.885 372.852 194.461 372.265L193.748 371.564ZM192.025 373.316L191.286 372.642C190.706 373.278 190.134 373.917 189.569 374.558L190.319 375.22L191.069 375.881C191.627 375.248 192.192 374.618 192.764 373.99L192.025 373.316ZM187.041 379.071L186.268 378.436C185.197 379.739 184.157 381.051 183.147 382.371L183.941 382.979L184.735 383.586C185.731 382.285 186.757 380.991 187.813 379.706L187.041 379.071ZM180.92 387.08L180.104 386.502C179.123 387.886 178.175 389.278 177.261 390.676L178.098 391.223L178.935 391.771C179.835 390.394 180.769 389.022 181.736 387.658L180.92 387.08ZM175.412 395.508L174.555 394.993C173.676 396.458 172.834 397.928 172.028 399.402L172.906 399.881L173.783 400.361C174.576 398.911 175.405 397.464 176.27 396.022L175.412 395.508ZM170.589 404.338L169.692 403.896C168.932 405.437 168.212 406.981 167.533 408.526L168.448 408.928L169.364 409.331C170.031 407.813 170.738 406.296 171.486 404.781L170.589 404.338ZM166.54 413.549L165.607 413.188C164.985 414.8 164.408 416.41 163.875 418.019L164.824 418.333L165.774 418.647C166.296 417.07 166.862 415.49 167.473 413.909L166.54 413.549ZM163.377 423.105L162.413 422.839C161.952 424.51 161.541 426.176 161.18 427.837L162.158 428.049L163.135 428.261C163.488 426.638 163.89 425.007 164.341 423.371L163.377 423.105ZM161.236 432.953L160.249 432.796C159.978 434.509 159.762 436.213 159.602 437.905L160.597 438L161.593 438.094C161.749 436.444 161.96 434.781 162.224 433.109L161.236 432.953ZM160.287 442.986L159.288 442.957C159.237 444.689 159.248 446.406 159.319 448.106L160.318 448.064L161.317 448.022C161.248 446.37 161.238 444.701 161.287 443.015L160.287 442.986ZM160.714 453.06L159.721 453.176C159.922 454.89 160.189 456.583 160.523 458.252L161.503 458.056L162.484 457.86C162.161 456.245 161.902 454.605 161.707 452.943L160.714 453.06ZM162.694 462.938L161.734 463.216C162.211 464.865 162.759 466.487 163.378 468.077L164.309 467.714L165.241 467.352C164.645 465.818 164.116 464.253 163.655 462.66L162.694 462.938ZM166.345 472.313L165.451 472.76C166.214 474.29 167.05 475.785 167.959 477.243L168.807 476.714L169.656 476.185C168.781 474.781 167.976 473.34 167.24 471.866L166.345 472.313ZM171.66 480.842L170.865 481.449C171.901 482.807 173.008 484.125 174.186 485.4L174.921 484.722L175.655 484.043C174.519 482.814 173.453 481.544 172.455 480.236L171.66 480.842ZM178.469 488.23L177.799 488.972C179.063 490.114 180.392 491.214 181.789 492.269L182.392 491.471L182.995 490.674C181.644 489.653 180.36 488.591 179.14 487.488L178.469 488.23ZM186.476 494.304L185.939 495.147C187.374 496.06 188.869 496.93 190.423 497.757L190.893 496.874L191.362 495.991C189.853 495.188 188.403 494.344 187.012 493.46L186.476 494.304ZM195.339 499.042L194.932 499.956C196.487 500.649 198.095 501.303 199.755 501.915L200.101 500.977L200.447 500.038C198.827 499.441 197.261 498.804 195.747 498.129L195.339 499.042ZM204.77 502.543L204.479 503.5C206.09 503.989 207.745 504.442 209.444 504.858L209.682 503.887L209.92 502.915C208.255 502.508 206.635 502.065 205.061 501.586L204.77 502.543ZM214.575 504.954L214.386 505.936C216.007 506.248 217.666 506.529 219.363 506.776L219.507 505.787L219.652 504.797C217.985 504.554 216.355 504.278 214.764 503.972L214.575 504.954ZM224.653 506.424L224.552 507.419C226.154 507.583 227.788 507.719 229.453 507.827L229.517 506.829L229.582 505.831C227.942 505.725 226.333 505.591 224.755 505.429L224.653 506.424ZM234.569 507.066L234.539 508.065C236.236 508.115 237.962 508.136 239.719 508.129L239.715 507.129L239.711 506.129C237.976 506.136 236.272 506.115 234.598 506.066L234.569 507.066ZM244.61 507.037L244.643 508.036C246.31 507.98 248.003 507.9 249.721 507.794L249.66 506.796L249.598 505.798C247.898 505.903 246.224 505.982 244.576 506.037L244.61 507.037ZM254.849 506.405L254.937 507.401C256.537 507.26 258.159 507.097 259.802 506.912L259.69 505.918L259.578 504.924C257.951 505.107 256.345 505.269 254.76 505.409L254.849 506.405ZM264.66 505.302L264.794 506.293C266.48 506.065 268.187 505.815 269.916 505.543L269.76 504.555L269.604 503.567C267.89 503.837 266.197 504.085 264.526 504.311L264.66 505.302ZM274.714 503.724L274.889 504.708C276.492 504.423 278.112 504.119 279.75 503.796L279.557 502.815L279.364 501.834C277.737 502.155 276.129 502.456 274.539 502.739L274.714 503.724ZM284.508 501.794L284.719 502.771C286.392 502.41 288.084 502.03 289.794 501.631L289.566 500.657L289.339 499.683C287.64 500.08 285.96 500.458 284.297 500.816L284.508 501.794ZM294.393 499.489L294.636 500.459C296.219 500.063 297.817 499.65 299.429 499.221L299.172 498.255L298.915 497.289C297.312 497.715 295.723 498.125 294.15 498.519L294.393 499.489ZM304.042 496.922L304.313 497.885C305.956 497.423 307.613 496.944 309.286 496.448L309.002 495.489L308.718 494.53C307.054 495.024 305.405 495.5 303.771 495.96L304.042 496.922ZM313.836 494.022L314.132 494.977C315.682 494.496 317.244 494 318.819 493.49L318.511 492.539L318.203 491.587C316.636 492.095 315.081 492.588 313.539 493.067L313.836 494.022ZM323.262 490.969L323.581 491.917C325.181 491.378 326.794 490.824 328.419 490.256L328.089 489.312L327.759 488.368C326.141 488.934 324.535 489.485 322.943 490.021L323.262 490.969ZM332.992 487.566L333.333 488.507C334.865 487.951 336.408 487.384 337.962 486.803L337.612 485.866L337.262 484.929C335.714 485.508 334.177 486.073 332.652 486.626L332.992 487.566ZM342.224 484.117L342.583 485.05C344.134 484.453 345.695 483.843 347.267 483.221L346.899 482.291L346.531 481.361C344.965 481.981 343.409 482.589 341.864 483.183L342.224 484.117ZM351.639 480.388L352.016 481.315C353.61 480.666 355.214 480.005 356.829 479.331L356.444 478.408L356.058 477.485C354.449 478.157 352.85 478.816 351.262 479.462L351.639 480.388ZM361.009 476.479L361.402 477.399C362.901 476.758 364.409 476.106 365.926 475.443L365.525 474.527L365.125 473.611C363.613 474.272 362.11 474.921 360.616 475.56L361.009 476.479ZM370.096 472.508L370.504 473.421C372.039 472.736 373.583 472.039 375.136 471.331L374.722 470.421L374.307 469.511C372.758 470.217 371.219 470.912 369.688 471.595L370.096 472.508ZM379.402 468.266L379.824 469.173C381.371 468.453 382.927 467.722 384.492 466.981L384.063 466.077L383.635 465.173C382.074 465.913 380.523 466.642 378.98 467.359L379.402 468.266ZM388.465 463.972L388.9 464.872C390.377 464.16 391.862 463.437 393.355 462.705L392.914 461.807L392.474 460.91C390.985 461.64 389.504 462.36 388.031 463.071L388.465 463.972ZM397.41 459.583L397.856 460.478C399.365 459.726 400.881 458.963 402.405 458.191L401.953 457.299L401.501 456.407C399.981 457.177 398.468 457.938 396.964 458.688L397.41 459.583ZM406.543 454.954L407.001 455.843C408.521 455.06 410.05 454.267 411.586 453.464L411.123 452.578L410.659 451.692C409.127 452.493 407.602 453.284 406.085 454.065L406.543 454.954ZM415.441 450.305L415.909 451.189C417.357 450.422 418.811 449.646 420.272 448.861L419.799 447.98L419.326 447.099C417.868 447.882 416.417 448.656 414.972 449.422L415.441 450.305ZM424.198 445.602L424.676 446.48C426.151 445.678 427.632 444.866 429.12 444.046L428.637 443.17L428.155 442.294C426.67 443.113 425.191 443.923 423.72 444.723L424.198 445.602ZM433.117 440.684L433.605 441.558C435.107 440.719 436.615 439.872 438.13 439.015L437.638 438.145L437.146 437.274C435.634 438.129 434.129 438.975 432.63 439.811L433.117 440.684ZM441.988 435.672L442.485 436.54C443.898 435.731 445.318 434.915 446.743 434.091L446.242 433.226L445.742 432.36C444.319 433.182 442.903 433.997 441.492 434.803L441.988 435.672ZM450.531 430.732L451.036 431.596C452.473 430.756 453.915 429.908 455.364 429.053L454.855 428.192L454.347 427.331C452.901 428.185 451.461 429.031 450.027 429.869L450.531 430.732ZM459.214 425.604L459.727 426.462C461.187 425.591 462.653 424.711 464.125 423.824L463.609 422.967L463.092 422.111C461.623 422.997 460.159 423.875 458.702 424.745L459.214 425.604ZM468.038 420.283L468.559 421.137C469.984 420.268 471.415 419.392 472.852 418.509L472.328 417.657L471.804 416.805C470.37 417.687 468.941 418.562 467.518 419.428L468.038 420.283ZM476.5 415.08L477.027 415.93C478.424 415.063 479.826 414.189 481.233 413.308L480.703 412.46L480.172 411.613C478.767 412.492 477.367 413.365 475.973 414.23L476.5 415.08ZM484.936 409.798L485.47 410.644C486.887 409.749 488.309 408.846 489.737 407.937L489.199 407.094L488.662 406.25C487.237 407.158 485.817 408.059 484.402 408.953L484.936 409.798ZM493.494 404.346L494.034 405.187C495.472 404.264 496.915 403.333 498.363 402.394L497.819 401.555L497.275 400.716C495.829 401.653 494.389 402.582 492.953 403.505L493.494 404.346ZM502.175 398.721L502.722 399.558C504.087 398.666 505.456 397.768 506.83 396.863L506.281 396.028L505.731 395.193C504.358 396.096 502.991 396.993 501.628 397.884L502.175 398.721ZM510.386 393.315L510.939 394.148C512.313 393.237 513.691 392.319 515.074 391.395L514.518 390.564L513.963 389.732C512.582 390.655 511.205 391.571 509.833 392.482L510.386 393.315ZM518.678 387.774L519.236 388.604C520.628 387.667 522.024 386.723 523.425 385.774L522.864 384.946L522.303 384.118C520.904 385.067 519.509 386.009 518.119 386.944L518.678 387.774ZM527.077 382.079L527.641 382.905C529.05 381.942 530.465 380.973 531.883 379.997L531.317 379.173L530.75 378.349C529.333 379.324 527.921 380.292 526.513 381.253L527.077 382.079ZM535.583 376.229L536.153 377.051C537.512 376.11 538.875 375.163 540.242 374.21L539.67 373.389L539.098 372.569C537.733 373.521 536.371 374.467 535.014 375.407L535.583 376.229ZM543.697 370.574L544.271 371.393C545.618 370.448 546.969 369.497 548.323 368.541L547.747 367.724L547.17 366.907C545.817 367.862 544.468 368.812 543.122 369.755L543.697 370.574ZM551.82 364.839L552.399 365.655C553.762 364.687 555.128 363.713 556.499 362.734L555.917 361.92L555.336 361.107C553.967 362.085 552.602 363.057 551.241 364.024L551.82 364.839ZM560.038 358.966L560.622 359.778C562.001 358.787 563.383 357.79 564.769 356.788L564.183 355.977L563.597 355.167C562.212 356.169 560.831 357.164 559.455 358.154L560.038 358.966ZM568.351 352.953L568.94 353.762C570.334 352.747 571.732 351.727 573.134 350.701L572.544 349.894L571.953 349.087C570.552 350.112 569.156 351.131 567.763 352.145L568.351 352.953ZM576.507 346.985L577.099 347.791C578.416 346.821 579.737 345.847 581.061 344.867L580.467 344.063L579.872 343.259C578.549 344.238 577.23 345.212 575.914 346.18L576.507 346.985ZM584.447 341.11L585.044 341.912C586.375 340.922 587.71 339.927 589.048 338.926L588.449 338.125L587.85 337.324C586.514 338.324 585.18 339.318 583.851 340.307L584.447 341.11ZM592.472 335.109L593.073 335.908C594.418 334.897 595.766 333.881 597.118 332.859L596.515 332.061L595.913 331.264C594.562 332.284 593.215 333.3 591.871 334.31L592.472 335.109ZM600.58 328.982L601.185 329.779C602.544 328.746 603.906 327.709 605.272 326.666L604.666 325.871L604.059 325.076C602.694 326.118 601.333 327.155 599.975 328.186L600.58 328.982ZM608.772 322.728L609.381 323.522C610.068 322.995 610.755 322.467 611.443 321.937L610.834 321.145L610.224 320.352C609.536 320.881 608.849 321.409 608.163 321.935L608.772 322.728Z" fill="#769BD9"/>
</svg>
