<svg width="40" height="40" viewBox="0 0 40 40" fill="none" xmlns="http://www.w3.org/2000/svg">
<path d="M19.375 15.625V16.875H17.495L18.405 19.375H19.375V20.625H18.86L19.7831 23.1612L22.0844 15.8487L23.125 14.2575V1.875H16.875V4.375H19.375V5.625H16.875V8.125H19.375V9.375H16.875V11.875H19.375V13.125H16.875V15.1713L17.04 15.625H19.375Z" fill="url(#paint0_linear_1046_2206)"/>
<path d="M15.8512 26.9794C16.6037 27.4274 17.4236 27.7509 18.2793 27.9375L19.1662 25.1212L13.4999 9.5575L9.9762 10.84L15.8512 26.9794Z" fill="url(#paint1_linear_1046_2206)"/>
<path d="M13.0738 8.38253L9.38818 3.73816L9.55006 9.66503L13.0738 8.38253Z" fill="url(#paint2_linear_1046_2206)"/>
<path d="M20 28.125C21.1565 28.1243 22.2994 27.8758 23.3518 27.3962L27.865 18.25L28.5343 14.6619C28.4093 14.6744 28.2794 14.6956 28.1506 14.6956C27.5924 14.6977 27.0404 14.5774 26.5338 14.3431C26.0271 14.1087 25.578 13.7661 25.2181 13.3394L23.225 16.3887L19.5375 28.1025C19.6919 28.1112 19.845 28.125 20 28.125Z" fill="url(#paint3_linear_1046_2206)"/>
<path d="M27.175 13.26C28.7762 13.9031 30.7125 12.8356 31.4993 10.8756C32.2862 8.91562 30.9 3.97937 30.9 3.97937C30.9 3.97937 26.4856 6.58812 25.6987 8.54749C24.9118 10.5069 25.5731 12.6169 27.175 13.26Z" fill="url(#paint4_linear_1046_2206)"/>
<path d="M37.85 23.125C38.2167 21.0578 38.2167 18.9422 37.85 16.875H28.8375C29.1947 17.8781 29.3766 18.9352 29.375 20C29.375 22.4864 28.3873 24.871 26.6291 26.6291C24.871 28.3873 22.4864 29.375 20 29.375C17.5136 29.375 15.129 28.3873 13.3709 26.6291C11.6127 24.871 10.625 22.4864 10.625 20C10.6234 18.9352 10.8053 17.8781 11.1625 16.875H2.15C1.78333 18.9422 1.78333 21.0578 2.15 23.125H5.96875C6.33103 24.7529 6.97396 26.3052 7.86875 27.7125L5.16875 30.4125C6.36747 32.1362 7.86378 33.6325 9.5875 34.8312L12.2875 32.1312C13.6948 33.026 15.2472 33.669 16.875 34.0313V37.85C18.9422 38.2167 21.0578 38.2167 23.125 37.85V34.0313C24.7529 33.669 26.3052 33.026 27.7125 32.1312L30.4125 34.8312C32.1362 33.6325 33.6325 32.1362 34.8312 30.4125L32.1312 27.7125C33.026 26.3052 33.669 24.7529 34.0313 23.125H37.85Z" fill="url(#paint5_linear_1046_2206)"/>
<defs>
<linearGradient id="paint0_linear_1046_2206" x1="16.875" y1="16.3387" x2="23.125" y2="16.3387" gradientUnits="userSpaceOnUse">
<stop stop-color="#7AADDA"/>
<stop offset="1" stop-color="#83CADE"/>
</linearGradient>
<linearGradient id="paint1_linear_1046_2206" x1="9.9762" y1="22.0465" x2="19.1662" y2="22.0465" gradientUnits="userSpaceOnUse">
<stop stop-color="#7AADDA"/>
<stop offset="1" stop-color="#83CADE"/>
</linearGradient>
<linearGradient id="paint2_linear_1046_2206" x1="9.38818" y1="7.76539" x2="13.0738" y2="7.76539" gradientUnits="userSpaceOnUse">
<stop stop-color="#7AADDA"/>
<stop offset="1" stop-color="#83CADE"/>
</linearGradient>
<linearGradient id="paint3_linear_1046_2206" x1="19.5375" y1="23.386" x2="28.5343" y2="23.386" gradientUnits="userSpaceOnUse">
<stop stop-color="#7AADDA"/>
<stop offset="1" stop-color="#83CADE"/>
</linearGradient>
<linearGradient id="paint4_linear_1046_2206" x1="25.3671" y1="10.4126" x2="31.7411" y2="10.4126" gradientUnits="userSpaceOnUse">
<stop stop-color="#7AADDA"/>
<stop offset="1" stop-color="#83CADE"/>
</linearGradient>
<linearGradient id="paint5_linear_1046_2206" x1="1.875" y1="31.3141" x2="38.125" y2="31.3141" gradientUnits="userSpaceOnUse">
<stop stop-color="#7AADDA"/>
<stop offset="1" stop-color="#83CADE"/>
</linearGradient>
</defs>
</svg>
