<svg width="600" height="435" viewBox="0 0 600 435" fill="none" xmlns="http://www.w3.org/2000/svg">
<rect width="600" height="435" rx="16" fill="#262A43"/>
<rect x="40" y="40" width="106" height="106" rx="8" fill="white"/>
<path d="M63.5 110.5L75.212 75.124H81.644L93.356 110.5H87.452L81.74 91.3C81.164 89.38 80.604 87.444 80.06 85.492C79.516 83.508 78.972 81.524 78.428 79.54H78.236C77.724 81.556 77.18 83.54 76.604 85.492C76.06 87.444 75.5 89.38 74.924 91.3L69.212 110.5H63.5ZM70.124 100.468V96.052H86.636V100.468H70.124ZM104.666 111.172C103.162 111.172 101.818 110.852 100.634 110.212C99.482 109.572 98.57 108.676 97.898 107.524C97.226 106.372 96.89 105.028 96.89 103.492C96.89 100.644 98.138 98.452 100.634 96.916C103.162 95.348 107.178 94.26 112.682 93.652C112.65 92.628 112.49 91.684 112.202 90.82C111.914 89.956 111.402 89.268 110.666 88.756C109.962 88.212 108.954 87.94 107.642 87.94C106.266 87.94 104.938 88.212 103.658 88.756C102.378 89.3 101.162 89.924 100.01 90.628L97.946 86.884C98.874 86.308 99.898 85.764 101.018 85.252C102.138 84.708 103.338 84.276 104.618 83.956C105.898 83.604 107.226 83.428 108.602 83.428C110.81 83.428 112.618 83.876 114.026 84.772C115.434 85.636 116.474 86.9 117.146 88.564C117.85 90.228 118.202 92.244 118.202 94.612V110.5H113.69L113.258 107.476H113.066C111.882 108.5 110.586 109.38 109.178 110.116C107.77 110.82 106.266 111.172 104.666 111.172ZM106.346 106.756C107.498 106.756 108.57 106.5 109.562 105.988C110.554 105.444 111.594 104.66 112.682 103.636V97.204C110.09 97.492 108.026 97.924 106.49 98.5C104.954 99.044 103.85 99.7 103.178 100.468C102.538 101.204 102.218 102.068 102.218 103.06C102.218 104.372 102.618 105.316 103.418 105.892C104.218 106.468 105.194 106.756 106.346 106.756Z" fill="#434343"/>
<path d="M172.424 65V47.408H174.68L181.112 58.496L183.008 62.12H183.128C182.984 60.368 182.816 58.376 182.816 56.552V47.408H184.928V65H182.648L176.24 53.888L174.344 50.264H174.248C174.344 52.04 174.512 53.912 174.512 55.76V65H172.424ZM194.616 65.312C191.424 65.312 188.592 62.816 188.592 58.496C188.592 54.152 191.424 51.632 194.616 51.632C197.808 51.632 200.64 54.152 200.64 58.496C200.64 62.816 197.808 65.312 194.616 65.312ZM194.616 63.488C196.872 63.488 198.408 61.496 198.408 58.496C198.408 55.496 196.872 53.48 194.616 53.48C192.36 53.48 190.848 55.496 190.848 58.496C190.848 61.496 192.36 63.488 194.616 63.488ZM207.741 65.312C204.981 65.312 204.045 63.584 204.045 60.968V53.744H202.101V52.088L204.165 51.968L204.405 48.296H206.229V51.968H209.781V53.744H206.229V61.04C206.229 62.624 206.733 63.536 208.245 63.536C208.725 63.536 209.301 63.368 209.733 63.176L210.165 64.832C209.421 65.072 208.557 65.312 207.741 65.312ZM217.42 65.312C214.228 65.312 211.396 62.816 211.396 58.496C211.396 54.152 214.228 51.632 217.42 51.632C220.612 51.632 223.444 54.152 223.444 58.496C223.444 62.816 220.612 65.312 217.42 65.312ZM217.42 63.488C219.676 63.488 221.212 61.496 221.212 58.496C221.212 55.496 219.676 53.48 217.42 53.48C215.164 53.48 213.652 55.496 213.652 58.496C213.652 61.496 215.164 63.488 217.42 63.488ZM237.366 65.312C234.87 65.312 232.734 64.304 231.222 62.72L232.542 61.184C233.79 62.504 235.566 63.368 237.39 63.368C239.718 63.368 241.086 62.216 241.086 60.512C241.086 58.688 239.814 58.112 238.134 57.368L235.614 56.264C233.982 55.568 232.038 54.32 232.038 51.752C232.038 49.04 234.39 47.096 237.582 47.096C239.67 47.096 241.518 47.984 242.742 49.256L241.59 50.672C240.51 49.664 239.214 49.04 237.582 49.04C235.59 49.04 234.294 50.024 234.294 51.584C234.294 53.312 235.854 53.96 237.222 54.536L239.718 55.616C241.758 56.504 243.342 57.704 243.342 60.32C243.342 63.104 241.038 65.312 237.366 65.312ZM249.575 65.312C247.391 65.312 245.783 63.968 245.783 61.616C245.783 58.784 248.231 57.368 253.775 56.744C253.775 55.064 253.223 53.456 251.087 53.456C249.575 53.456 248.207 54.152 247.175 54.848L246.335 53.336C247.511 52.568 249.335 51.632 251.447 51.632C254.639 51.632 255.959 53.744 255.959 56.984V65H254.159L253.967 63.44H253.895C252.647 64.472 251.183 65.312 249.575 65.312ZM250.199 63.536C251.447 63.536 252.503 62.96 253.775 61.832V58.208C249.383 58.712 247.895 59.792 247.895 61.472C247.895 62.96 248.903 63.536 250.199 63.536ZM260.099 65V51.968H261.899L262.115 53.864H262.163C263.387 52.616 264.755 51.632 266.531 51.632C269.267 51.632 270.515 53.432 270.515 56.744V65H268.331V57.032C268.331 54.584 267.587 53.552 265.859 53.552C264.515 53.552 263.603 54.224 262.307 55.544V65H260.099ZM278.155 65.312C276.307 65.312 274.531 64.544 273.307 63.512L274.363 62.048C275.515 62.984 276.667 63.608 278.227 63.608C279.955 63.608 280.795 62.696 280.795 61.568C280.795 60.248 279.259 59.624 277.819 59.096C275.995 58.424 274.027 57.56 274.027 55.328C274.027 53.264 275.659 51.632 278.515 51.632C280.123 51.632 281.563 52.304 282.547 53.12L281.491 54.488C280.603 53.84 279.691 53.336 278.539 53.336C276.883 53.336 276.115 54.2 276.115 55.232C276.115 56.456 277.459 56.936 278.923 57.488C280.819 58.208 282.883 58.976 282.883 61.448C282.883 63.56 281.227 65.312 278.155 65.312ZM295.205 65V49.28H289.877V47.408H302.765V49.28H297.437V65H295.205ZM311.892 65.312C307.5 65.312 304.236 61.928 304.236 56.216C304.236 50.528 307.572 47.096 312.036 47.096C314.172 47.096 315.852 48.128 316.86 49.256L315.66 50.696C314.724 49.712 313.572 49.04 312.06 49.04C308.748 49.04 306.516 51.752 306.516 56.144C306.516 60.584 308.628 63.368 311.988 63.368C313.668 63.368 314.94 62.624 316.068 61.376L317.292 62.792C315.9 64.4 314.172 65.312 311.892 65.312Z" fill="white"/>
<path d="M172.184 114V96.216H175.736V103.248H182.456V96.216H185.984V114H182.456V106.32H175.736V114H172.184ZM195.916 114.336C192.148 114.336 189.22 111.72 189.22 107.28C189.22 102.936 192.292 100.224 195.484 100.224C199.18 100.224 201.1 102.912 201.1 106.656C201.1 107.304 201.028 107.952 200.932 108.288H192.652C192.94 110.472 194.38 111.6 196.396 111.6C197.476 111.6 198.412 111.288 199.396 110.688L200.596 112.848C199.276 113.76 197.572 114.336 195.916 114.336ZM192.58 105.912H198.076C198.076 104.112 197.284 102.96 195.532 102.96C194.116 102.96 192.868 103.968 192.58 105.912ZM206.965 114.336C204.565 114.336 203.005 112.632 203.005 110.328C203.005 107.472 205.333 105.96 210.733 105.384C210.685 104.064 210.109 103.056 208.453 103.056C207.205 103.056 206.005 103.608 204.757 104.352L203.509 102C205.069 101.04 206.989 100.224 209.101 100.224C212.509 100.224 214.261 102.264 214.261 106.152V114H211.381L211.141 112.56H211.021C209.869 113.592 208.525 114.336 206.965 114.336ZM208.141 111.576C209.149 111.576 209.893 111.096 210.733 110.256V107.568C207.445 107.952 206.365 108.84 206.365 110.064C206.365 111.12 207.109 111.576 208.141 111.576ZM222.585 114.336C219.225 114.336 217.089 111.696 217.089 107.28C217.089 102.912 219.849 100.224 222.729 100.224C224.241 100.224 225.177 100.8 226.137 101.688L226.017 99.576V94.848H229.545V114H226.665L226.401 112.608H226.305C225.321 113.592 223.977 114.336 222.585 114.336ZM223.497 111.432C224.433 111.432 225.249 111.048 226.017 110.04V104.136C225.201 103.392 224.361 103.128 223.497 103.128C221.985 103.128 220.713 104.568 220.713 107.232C220.713 110.04 221.721 111.432 223.497 111.432ZM236.638 114.336C234.166 114.336 233.302 112.728 233.302 110.232V94.848H236.83V110.376C236.83 111.192 237.19 111.456 237.526 111.456C237.67 111.456 237.766 111.456 238.006 111.408L238.438 114.024C238.03 114.192 237.454 114.336 236.638 114.336ZM240.873 114V100.56H244.401V114H240.873ZM242.649 98.376C241.401 98.376 240.609 97.632 240.609 96.456C240.609 95.304 241.401 94.536 242.649 94.536C243.849 94.536 244.689 95.304 244.689 96.456C244.689 97.632 243.849 98.376 242.649 98.376ZM248.162 114V100.56H251.042L251.306 102.336H251.378C252.554 101.184 253.922 100.224 255.746 100.224C258.65 100.224 259.898 102.24 259.898 105.624V114H256.37V106.056C256.37 103.968 255.794 103.248 254.474 103.248C253.394 103.248 252.674 103.776 251.69 104.76V114H248.162ZM269.393 114.336C265.625 114.336 262.697 111.72 262.697 107.28C262.697 102.936 265.769 100.224 268.961 100.224C272.657 100.224 274.577 102.912 274.577 106.656C274.577 107.304 274.505 107.952 274.409 108.288H266.129C266.417 110.472 267.857 111.6 269.873 111.6C270.953 111.6 271.889 111.288 272.873 110.688L274.073 112.848C272.753 113.76 271.049 114.336 269.393 114.336ZM266.057 105.912H271.553C271.553 104.112 270.761 102.96 269.009 102.96C267.593 102.96 266.345 103.968 266.057 105.912Z" fill="white"/>
<path d="M207.001 139V138.136C210.441 134.712 212.377 132.664 212.377 130.792C212.377 129.496 211.673 128.568 210.217 128.568C209.257 128.568 208.441 129.176 207.785 129.928L206.937 129.112C207.881 128.056 208.905 127.384 210.393 127.384C212.489 127.384 213.817 128.712 213.817 130.728C213.817 132.872 211.849 135.016 209.145 137.848C209.753 137.8 210.473 137.736 211.065 137.736H214.377V139H207.001ZM220.612 139V135.848H215.492V134.888L220.372 127.592H221.988V134.68H223.556V135.848H221.988V139H220.612ZM220.612 134.68V131.336C220.612 130.76 220.66 129.752 220.692 129.16H220.628C220.34 129.704 220.02 130.2 219.684 130.776L217.012 134.68H220.612ZM225.519 142.664V130.312H226.719L226.863 131.32H226.895C227.679 130.664 228.655 130.088 229.663 130.088C231.903 130.088 233.119 131.832 233.119 134.52C233.119 137.496 231.327 139.208 229.343 139.208C228.559 139.208 227.727 138.856 226.943 138.2L226.991 139.72V142.664H225.519ZM229.103 137.976C230.543 137.976 231.599 136.68 231.599 134.536C231.599 132.6 230.959 131.32 229.295 131.32C228.575 131.32 227.823 131.736 226.991 132.504V137.08C227.759 137.752 228.527 137.976 229.103 137.976ZM237.864 139.208C236.024 139.208 235.4 138.056 235.4 136.312V131.496H234.104V130.392L235.48 130.312L235.64 127.864H236.856V130.312H239.224V131.496H236.856V136.36C236.856 137.416 237.192 138.024 238.2 138.024C238.52 138.024 238.904 137.912 239.192 137.784L239.48 138.888C238.984 139.048 238.408 139.208 237.864 139.208Z" fill="#BFBFBF"/>
<path d="M304.76 119V106.66H300.6V104.18H311.9V106.66H307.72V119H304.76ZM314.08 119V107.8H317.02V119H314.08ZM315.56 105.98C314.52 105.98 313.86 105.36 313.86 104.38C313.86 103.42 314.52 102.78 315.56 102.78C316.56 102.78 317.26 103.42 317.26 104.38C317.26 105.36 316.56 105.98 315.56 105.98ZM324.254 119.28C321.594 119.28 320.574 117.58 320.574 115.1V110.12H318.994V107.94L320.734 107.8L321.074 104.78H323.494V107.8H326.274V110.12H323.494V115.08C323.494 116.36 324.034 116.96 325.034 116.96C325.394 116.96 325.834 116.84 326.134 116.72L326.634 118.86C326.014 119.04 325.234 119.28 324.254 119.28ZM331.352 119.28C329.292 119.28 328.572 117.94 328.572 115.86V103.04H331.512V115.98C331.512 116.66 331.812 116.88 332.092 116.88C332.212 116.88 332.292 116.88 332.492 116.84L332.852 119.02C332.512 119.16 332.032 119.28 331.352 119.28ZM339.761 119.28C336.621 119.28 334.181 117.1 334.181 113.4C334.181 109.78 336.741 107.52 339.401 107.52C342.481 107.52 344.081 109.76 344.081 112.88C344.081 113.42 344.021 113.96 343.941 114.24H337.041C337.281 116.06 338.481 117 340.161 117C341.061 117 341.841 116.74 342.661 116.24L343.661 118.04C342.561 118.8 341.141 119.28 339.761 119.28ZM336.981 112.26H341.561C341.561 110.76 340.901 109.8 339.441 109.8C338.261 109.8 337.221 110.64 336.981 112.26Z" fill="white"/>
<path d="M306.501 139V138.136C309.941 134.712 311.877 132.664 311.877 130.792C311.877 129.496 311.173 128.568 309.717 128.568C308.757 128.568 307.941 129.176 307.285 129.928L306.437 129.112C307.381 128.056 308.405 127.384 309.893 127.384C311.989 127.384 313.317 128.712 313.317 130.728C313.317 132.872 311.349 135.016 308.645 137.848C309.253 137.8 309.973 137.736 310.565 137.736H313.877V139H306.501ZM319.12 139.208C316.832 139.208 315.472 137.08 315.472 133.256C315.472 129.432 316.832 127.384 319.12 127.384C321.392 127.384 322.768 129.448 322.768 133.256C322.768 137.08 321.392 139.208 319.12 139.208ZM319.12 138.024C320.448 138.024 321.36 136.6 321.36 133.256C321.36 129.912 320.448 128.552 319.12 128.552C317.792 128.552 316.88 129.912 316.88 133.256C316.88 136.6 317.792 138.024 319.12 138.024ZM325.019 142.664V130.312H326.219L326.363 131.32H326.395C327.179 130.664 328.155 130.088 329.163 130.088C331.403 130.088 332.619 131.832 332.619 134.52C332.619 137.496 330.827 139.208 328.843 139.208C328.059 139.208 327.227 138.856 326.443 138.2L326.491 139.72V142.664H325.019ZM328.603 137.976C330.043 137.976 331.099 136.68 331.099 134.536C331.099 132.6 330.459 131.32 328.795 131.32C328.075 131.32 327.323 131.736 326.491 132.504V137.08C327.259 137.752 328.027 137.976 328.603 137.976ZM337.364 139.208C335.524 139.208 334.9 138.056 334.9 136.312V131.496H333.604V130.392L334.98 130.312L335.14 127.864H336.356V130.312H338.724V131.496H336.356V136.36C336.356 137.416 336.692 138.024 337.7 138.024C338.02 138.024 338.404 137.912 338.692 137.784L338.98 138.888C338.484 139.048 337.908 139.208 337.364 139.208Z" fill="#BFBFBF"/>
<path d="M370.616 119V107.272H374.088C376.456 107.272 378.12 108.072 378.12 110.136C378.12 111.304 377.512 112.328 376.408 112.68V112.76C377.8 113.032 378.792 113.96 378.792 115.56C378.792 117.864 376.968 119 374.344 119H370.616ZM372.088 112.248H373.832C375.848 112.248 376.664 111.528 376.664 110.328C376.664 108.952 375.736 108.44 373.896 108.44H372.088V112.248ZM372.088 117.816H374.136C376.152 117.816 377.336 117.096 377.336 115.512C377.336 114.056 376.2 113.4 374.136 113.4H372.088V117.816ZM384.364 119.208C382.236 119.208 380.348 117.544 380.348 114.664C380.348 111.768 382.236 110.088 384.364 110.088C386.492 110.088 388.38 111.768 388.38 114.664C388.38 117.544 386.492 119.208 384.364 119.208ZM384.364 117.992C385.868 117.992 386.892 116.664 386.892 114.664C386.892 112.664 385.868 111.32 384.364 111.32C382.86 111.32 381.852 112.664 381.852 114.664C381.852 116.664 382.86 117.992 384.364 117.992ZM393.651 119.208C391.475 119.208 390.067 117.56 390.067 114.664C390.067 111.848 391.843 110.088 393.827 110.088C394.851 110.088 395.507 110.472 396.275 111.096L396.195 109.608V106.264H397.667V119H396.467L396.339 117.976H396.291C395.619 118.648 394.691 119.208 393.651 119.208ZM393.971 117.976C394.771 117.976 395.475 117.592 396.195 116.792V112.232C395.475 111.576 394.803 111.32 394.083 111.32C392.691 111.32 391.571 112.664 391.571 114.648C391.571 116.744 392.451 117.976 393.971 117.976ZM400.757 122.744C400.357 122.744 400.005 122.68 399.733 122.568L400.021 121.4C400.197 121.464 400.453 121.544 400.693 121.544C401.669 121.544 402.277 120.744 402.645 119.672L402.837 119.016L399.349 110.312H400.869L402.629 115.128C402.901 115.896 403.189 116.776 403.493 117.592H403.573C403.797 116.792 404.053 115.912 404.277 115.128L405.845 110.312H407.269L404.005 119.736C403.397 121.432 402.485 122.744 400.757 122.744Z" fill="white"/>
<path d="M372.908 139V137.784H375.532V129.368H373.436V128.44C374.476 128.248 375.228 127.976 375.868 127.592H376.988V137.784H379.34V139H372.908ZM385.175 139.208C382.919 139.208 381.239 137.384 381.239 133.72C381.239 129.144 383.303 127.384 385.575 127.384C386.807 127.384 387.687 127.896 388.327 128.584L387.511 129.496C387.063 128.936 386.359 128.6 385.639 128.6C384.023 128.6 382.679 129.848 382.615 133.496C383.335 132.584 384.359 132.04 385.271 132.04C387.255 132.04 388.535 133.224 388.535 135.56C388.535 137.736 386.999 139.208 385.175 139.208ZM382.647 134.648C382.839 136.872 383.719 138.056 385.159 138.056C386.295 138.056 387.175 137.064 387.175 135.56C387.175 134.072 386.455 133.128 385.047 133.128C384.311 133.128 383.431 133.528 382.647 134.648ZM390.722 142.664V130.312H391.922L392.066 131.32H392.098C392.882 130.664 393.858 130.088 394.866 130.088C397.106 130.088 398.322 131.832 398.322 134.52C398.322 137.496 396.53 139.208 394.546 139.208C393.762 139.208 392.93 138.856 392.146 138.2L392.194 139.72V142.664H390.722ZM394.306 137.976C395.746 137.976 396.802 136.68 396.802 134.536C396.802 132.6 396.162 131.32 394.498 131.32C393.778 131.32 393.026 131.736 392.194 132.504V137.08C392.962 137.752 393.73 137.976 394.306 137.976ZM403.067 139.208C401.227 139.208 400.603 138.056 400.603 136.312V131.496H399.307V130.392L400.683 130.312L400.843 127.864H402.059V130.312H404.427V131.496H402.059V136.36C402.059 137.416 402.395 138.024 403.403 138.024C403.723 138.024 404.107 137.912 404.395 137.784L404.683 138.888C404.187 139.048 403.611 139.208 403.067 139.208Z" fill="#BFBFBF"/>
<path d="M441.278 121.182C438.716 121.182 436.812 119.208 436.812 115.876C436.812 112.558 438.758 110.556 441.362 110.556C442.608 110.556 443.588 111.158 444.176 111.816L443.476 112.656C442.93 112.082 442.258 111.69 441.376 111.69C439.444 111.69 438.142 113.272 438.142 115.834C438.142 118.424 439.374 120.048 441.334 120.048C442.314 120.048 443.056 119.614 443.714 118.886L444.428 119.712C443.616 120.65 442.608 121.182 441.278 121.182ZM447.966 121.182C446.692 121.182 445.754 120.398 445.754 119.026C445.754 117.374 447.182 116.548 450.416 116.184C450.416 115.204 450.094 114.266 448.848 114.266C447.966 114.266 447.168 114.672 446.566 115.078L446.076 114.196C446.762 113.748 447.826 113.202 449.058 113.202C450.92 113.202 451.69 114.434 451.69 116.324V121H450.64L450.528 120.09H450.486C449.758 120.692 448.904 121.182 447.966 121.182ZM448.33 120.146C449.058 120.146 449.674 119.81 450.416 119.152V117.038C447.854 117.332 446.986 117.962 446.986 118.942C446.986 119.81 447.574 120.146 448.33 120.146ZM454.104 124.206V113.398H455.154L455.28 114.28H455.308C455.994 113.706 456.848 113.202 457.73 113.202C459.69 113.202 460.754 114.728 460.754 117.08C460.754 119.684 459.186 121.182 457.45 121.182C456.764 121.182 456.036 120.874 455.35 120.3L455.392 121.63V124.206H454.104ZM457.24 120.104C458.5 120.104 459.424 118.97 459.424 117.094C459.424 115.4 458.864 114.28 457.408 114.28C456.778 114.28 456.12 114.644 455.392 115.316V119.32C456.064 119.908 456.736 120.104 457.24 120.104ZM464.906 121.182C463.296 121.182 462.75 120.174 462.75 118.648V114.434H461.616V113.468L462.82 113.398L462.96 111.256H464.024V113.398H466.096V114.434H464.024V118.69C464.024 119.614 464.318 120.146 465.2 120.146C465.48 120.146 465.816 120.048 466.068 119.936L466.32 120.902C465.886 121.042 465.382 121.182 464.906 121.182ZM467.804 121V113.398H469.092V121H467.804ZM468.448 111.83C467.944 111.83 467.608 111.494 467.608 110.976C467.608 110.486 467.944 110.15 468.448 110.15C468.952 110.15 469.302 110.486 469.302 110.976C469.302 111.494 468.952 111.83 468.448 111.83ZM474.613 121.182C472.751 121.182 471.099 119.726 471.099 117.206C471.099 114.672 472.751 113.202 474.613 113.202C476.475 113.202 478.127 114.672 478.127 117.206C478.127 119.726 476.475 121.182 474.613 121.182ZM474.613 120.118C475.929 120.118 476.825 118.956 476.825 117.206C476.825 115.456 475.929 114.28 474.613 114.28C473.297 114.28 472.415 115.456 472.415 117.206C472.415 118.956 473.297 120.118 474.613 120.118ZM480.149 121V113.398H481.199L481.325 114.504H481.353C482.067 113.776 482.865 113.202 483.901 113.202C485.497 113.202 486.225 114.252 486.225 116.184V121H484.951V116.352C484.951 114.924 484.517 114.322 483.509 114.322C482.725 114.322 482.193 114.714 481.437 115.484V121H480.149Z" fill="white"/>
<path d="M448.232 139V137.936H450.528V130.572H448.694V129.76C449.604 129.592 450.262 129.354 450.822 129.018H451.802V137.936H453.86V139H448.232ZM459.526 139V136.242H455.046V135.402L459.316 129.018H460.73V135.22H462.102V136.242H460.73V139H459.526ZM459.526 135.22V132.294C459.526 131.79 459.568 130.908 459.596 130.39H459.54C459.288 130.866 459.008 131.3 458.714 131.804L456.376 135.22H459.526ZM463.819 142.206V131.398H464.869L464.995 132.28H465.023C465.709 131.706 466.563 131.202 467.445 131.202C469.405 131.202 470.469 132.728 470.469 135.08C470.469 137.684 468.901 139.182 467.165 139.182C466.479 139.182 465.751 138.874 465.065 138.3L465.107 139.63V142.206H463.819ZM466.955 138.104C468.215 138.104 469.139 136.97 469.139 135.094C469.139 133.4 468.579 132.28 467.123 132.28C466.493 132.28 465.835 132.644 465.107 133.316V137.32C465.779 137.908 466.451 138.104 466.955 138.104ZM474.621 139.182C473.011 139.182 472.465 138.174 472.465 136.648V132.434H471.331V131.468L472.535 131.398L472.675 129.256H473.739V131.398H475.811V132.434H473.739V136.69C473.739 137.614 474.033 138.146 474.915 138.146C475.195 138.146 475.531 138.048 475.783 137.936L476.035 138.902C475.601 139.042 475.097 139.182 474.621 139.182Z" fill="#BFBFBF"/>
<path d="M518.712 122V113.204H519.816V121.052H523.668V122H518.712ZM526.62 122.156C525.528 122.156 524.724 121.484 524.724 120.308C524.724 118.892 525.948 118.184 528.72 117.872C528.72 117.032 528.444 116.228 527.376 116.228C526.62 116.228 525.936 116.576 525.42 116.924L525 116.168C525.588 115.784 526.5 115.316 527.556 115.316C529.152 115.316 529.812 116.372 529.812 117.992V122H528.912L528.816 121.22H528.78C528.156 121.736 527.424 122.156 526.62 122.156ZM526.932 121.268C527.556 121.268 528.084 120.98 528.72 120.416V118.604C526.524 118.856 525.78 119.396 525.78 120.236C525.78 120.98 526.284 121.268 526.932 121.268ZM534.749 122.156C534.149 122.156 533.465 121.844 532.901 121.328H532.853L532.757 122H531.881V112.448H532.985V115.064L532.937 116.228C533.537 115.724 534.257 115.316 534.989 115.316C536.669 115.316 537.581 116.624 537.581 118.64C537.581 120.872 536.237 122.156 534.749 122.156ZM534.569 121.232C535.649 121.232 536.441 120.26 536.441 118.652C536.441 117.2 535.961 116.24 534.713 116.24C534.173 116.24 533.597 116.552 532.985 117.128V120.56C533.549 121.064 534.137 121.232 534.569 121.232ZM541.939 122.156C540.199 122.156 538.819 120.896 538.819 118.748C538.819 116.624 540.247 115.316 541.735 115.316C543.403 115.316 544.339 116.516 544.339 118.376C544.339 118.616 544.315 118.832 544.291 119H539.899C539.971 120.392 540.823 121.28 542.059 121.28C542.695 121.28 543.199 121.088 543.691 120.764L544.075 121.496C543.511 121.868 542.815 122.156 541.939 122.156ZM539.887 118.22H543.379C543.379 116.9 542.779 116.192 541.759 116.192C540.835 116.192 540.019 116.924 539.887 118.22ZM547.096 122.156C546.28 122.156 545.944 121.628 545.944 120.704V112.448H547.048V120.776C547.048 121.112 547.18 121.244 547.348 121.244C547.408 121.244 547.456 121.244 547.576 121.22L547.732 122.06C547.576 122.108 547.396 122.156 547.096 122.156Z" fill="white"/>
<path d="M521.056 139V138.088H523.024V131.776H521.452V131.08C522.232 130.936 522.796 130.732 523.276 130.444H524.116V138.088H525.88V139H521.056ZM527.184 139V138.352C529.764 135.784 531.216 134.248 531.216 132.844C531.216 131.872 530.688 131.176 529.596 131.176C528.876 131.176 528.264 131.632 527.772 132.196L527.136 131.584C527.844 130.792 528.612 130.288 529.728 130.288C531.3 130.288 532.296 131.284 532.296 132.796C532.296 134.404 530.82 136.012 528.792 138.136C529.248 138.1 529.788 138.052 530.232 138.052H532.716V139H527.184ZM534.417 141.748V132.484H535.317L535.425 133.24H535.449C536.037 132.748 536.769 132.316 537.525 132.316C539.205 132.316 540.117 133.624 540.117 135.64C540.117 137.872 538.773 139.156 537.285 139.156C536.697 139.156 536.073 138.892 535.485 138.4L535.521 139.54V141.748H534.417ZM537.105 138.232C538.185 138.232 538.977 137.26 538.977 135.652C538.977 134.2 538.497 133.24 537.249 133.24C536.709 133.24 536.145 133.552 535.521 134.128V137.56C536.097 138.064 536.673 138.232 537.105 138.232ZM543.675 139.156C542.295 139.156 541.827 138.292 541.827 136.984V133.372H540.855V132.544L541.887 132.484L542.007 130.648H542.919V132.484H544.695V133.372H542.919V137.02C542.919 137.812 543.171 138.268 543.927 138.268C544.167 138.268 544.455 138.184 544.671 138.088L544.887 138.916C544.515 139.036 544.083 139.156 543.675 139.156Z" fill="#BFBFBF"/>
<path d="M41.414 220V209.738H44.34C46.636 209.738 48.176 210.508 48.176 212.748C48.176 214.918 46.65 215.912 44.396 215.912H42.702V220H41.414ZM42.702 214.862H44.228C46.034 214.862 46.888 214.218 46.888 212.748C46.888 211.25 45.978 210.788 44.172 210.788H42.702V214.862ZM50.1474 220V212.398H51.1974L51.3234 213.784H51.3514C51.8834 212.818 52.6674 212.202 53.5074 212.202C53.8434 212.202 54.0814 212.244 54.3194 212.37L54.0814 213.476C53.8294 213.392 53.6614 213.35 53.3394 213.35C52.7094 213.35 51.9394 213.826 51.4354 215.114V220H50.1474ZM55.5751 220V212.398H56.8631V220H55.5751ZM56.2191 210.83C55.7151 210.83 55.3791 210.494 55.3791 209.976C55.3791 209.486 55.7151 209.15 56.2191 209.15C56.7231 209.15 57.0731 209.486 57.0731 209.976C57.0731 210.494 56.7231 210.83 56.2191 210.83ZM59.4306 220V212.398H60.4806L60.6066 213.504H60.6346C61.3066 212.776 62.0906 212.202 63.0006 212.202C64.1766 212.202 64.7926 212.762 65.1006 213.658C65.8986 212.804 66.6826 212.202 67.6206 212.202C69.1746 212.202 69.9166 213.252 69.9166 215.184V220H68.6426V215.352C68.6426 213.924 68.1946 213.322 67.2286 213.322C66.6406 213.322 66.0246 213.7 65.3106 214.484V220H64.0366V215.352C64.0366 213.924 63.5886 213.322 62.6226 213.322C62.0486 213.322 61.4046 213.7 60.7186 214.484V220H59.4306ZM74.1415 220.182C72.8675 220.182 71.9295 219.398 71.9295 218.026C71.9295 216.374 73.3575 215.548 76.5915 215.184C76.5915 214.204 76.2695 213.266 75.0235 213.266C74.1415 213.266 73.3435 213.672 72.7415 214.078L72.2515 213.196C72.9375 212.748 74.0015 212.202 75.2335 212.202C77.0955 212.202 77.8655 213.434 77.8655 215.324V220H76.8155L76.7035 219.09H76.6615C75.9335 219.692 75.0795 220.182 74.1415 220.182ZM74.5055 219.146C75.2335 219.146 75.8495 218.81 76.5915 218.152V216.038C74.0295 216.332 73.1615 216.962 73.1615 217.942C73.1615 218.81 73.7495 219.146 74.5055 219.146ZM80.2802 220V212.398H81.3302L81.4562 213.784H81.4842C82.0162 212.818 82.8002 212.202 83.6402 212.202C83.9762 212.202 84.2142 212.244 84.4522 212.37L84.2142 213.476C83.9622 213.392 83.7942 213.35 83.4722 213.35C82.8422 213.35 82.0722 213.826 81.5682 215.114V220H80.2802ZM86.2441 223.276C85.8941 223.276 85.5861 223.22 85.3481 223.122L85.6001 222.1C85.7541 222.156 85.9781 222.226 86.1881 222.226C87.0421 222.226 87.5741 221.526 87.8961 220.588L88.0641 220.014L85.0121 212.398H86.3421L87.8821 216.612C88.1201 217.284 88.3721 218.054 88.6381 218.768H88.7081C88.9041 218.068 89.1281 217.298 89.3241 216.612L90.6961 212.398H91.9421L89.0861 220.644C88.5541 222.128 87.7561 223.276 86.2441 223.276ZM100.54 220.182C97.9777 220.182 96.0737 218.208 96.0737 214.876C96.0737 211.558 98.0197 209.556 100.624 209.556C101.87 209.556 102.85 210.158 103.438 210.816L102.738 211.656C102.192 211.082 101.52 210.69 100.638 210.69C98.7057 210.69 97.4037 212.272 97.4037 214.834C97.4037 217.424 98.6357 219.048 100.596 219.048C101.576 219.048 102.318 218.614 102.976 217.886L103.69 218.712C102.878 219.65 101.87 220.182 100.54 220.182ZM108.431 220.182C106.569 220.182 104.917 218.726 104.917 216.206C104.917 213.672 106.569 212.202 108.431 212.202C110.293 212.202 111.945 213.672 111.945 216.206C111.945 218.726 110.293 220.182 108.431 220.182ZM108.431 219.118C109.747 219.118 110.643 217.956 110.643 216.206C110.643 214.456 109.747 213.28 108.431 213.28C107.115 213.28 106.233 214.456 106.233 216.206C106.233 217.956 107.115 219.118 108.431 219.118ZM115.312 220.182C114.36 220.182 113.968 219.566 113.968 218.488V208.856H115.256V218.572C115.256 218.964 115.41 219.118 115.606 219.118C115.676 219.118 115.732 219.118 115.872 219.09L116.054 220.07C115.872 220.126 115.662 220.182 115.312 220.182ZM120.9 220.182C119.038 220.182 117.386 218.726 117.386 216.206C117.386 213.672 119.038 212.202 120.9 212.202C122.762 212.202 124.414 213.672 124.414 216.206C124.414 218.726 122.762 220.182 120.9 220.182ZM120.9 219.118C122.216 219.118 123.112 217.956 123.112 216.206C123.112 214.456 122.216 213.28 120.9 213.28C119.584 213.28 118.702 214.456 118.702 216.206C118.702 217.956 119.584 219.118 120.9 219.118ZM126.436 220V212.398H127.486L127.612 213.784H127.64C128.172 212.818 128.956 212.202 129.796 212.202C130.132 212.202 130.37 212.244 130.608 212.37L130.37 213.476C130.118 213.392 129.95 213.35 129.628 213.35C128.998 213.35 128.228 213.826 127.724 215.114V220H126.436Z" fill="white"/>
<path d="M140.414 220L140.792 216.794H139.56V215.912H140.904L141.198 213.588H139.868V212.706H141.296L141.66 209.836H142.486L142.122 212.706H144.208L144.572 209.836H145.412L145.048 212.706H146.308V213.588H144.95L144.656 215.912H146V216.794H144.544L144.166 220H143.326L143.704 216.794H141.632L141.24 220H140.414ZM141.73 215.912H143.816L144.11 213.588H142.024L141.73 215.912ZM148.18 220V209.738H154.088V210.83H149.468V214.05H153.36V215.156H149.468V218.894H154.242V220H148.18ZM160.288 220.182C157.726 220.182 155.822 218.208 155.822 214.876C155.822 211.558 157.768 209.556 160.372 209.556C161.618 209.556 162.598 210.158 163.186 210.816L162.486 211.656C161.94 211.082 161.268 210.69 160.386 210.69C158.454 210.69 157.152 212.272 157.152 214.834C157.152 217.424 158.384 219.048 160.344 219.048C161.324 219.048 162.066 218.614 162.724 217.886L163.438 218.712C162.626 219.65 161.618 220.182 160.288 220.182ZM167.858 220.182C165.954 220.182 164.582 219.034 164.582 217.452C164.582 216.15 165.534 215.254 166.458 214.75V214.694C165.716 214.176 165.072 213.434 165.072 212.384C165.072 210.858 166.29 209.836 167.886 209.836C169.636 209.836 170.7 210.942 170.7 212.482C170.7 213.532 169.944 214.428 169.342 214.89V214.946C170.224 215.478 171.064 216.192 171.064 217.536C171.064 219.02 169.776 220.182 167.858 220.182ZM168.558 214.568C169.23 213.952 169.608 213.294 169.608 212.552C169.608 211.572 168.964 210.788 167.872 210.788C166.92 210.788 166.234 211.418 166.234 212.384C166.234 213.588 167.354 214.092 168.558 214.568ZM167.872 219.23C169.062 219.23 169.846 218.516 169.846 217.494C169.846 216.178 168.572 215.744 167.13 215.156C166.318 215.674 165.716 216.402 165.716 217.34C165.716 218.432 166.64 219.23 167.872 219.23ZM176.981 220.182C174.419 220.182 172.515 218.208 172.515 214.876C172.515 211.558 174.461 209.556 177.065 209.556C178.311 209.556 179.291 210.158 179.879 210.816L179.179 211.656C178.633 211.082 177.961 210.69 177.079 210.69C175.147 210.69 173.845 212.272 173.845 214.834C173.845 217.424 175.077 219.048 177.037 219.048C178.017 219.048 178.759 218.614 179.417 217.886L180.131 218.712C179.319 219.65 178.311 220.182 176.981 220.182ZM184.523 220.182C182.521 220.182 181.331 218.32 181.331 214.974C181.331 211.628 182.521 209.836 184.523 209.836C186.511 209.836 187.715 211.642 187.715 214.974C187.715 218.32 186.511 220.182 184.523 220.182ZM184.523 219.146C185.685 219.146 186.483 217.9 186.483 214.974C186.483 212.048 185.685 210.858 184.523 210.858C183.361 210.858 182.563 212.048 182.563 214.974C182.563 217.9 183.361 219.146 184.523 219.146ZM189.81 220V209.738H192.848C194.92 209.738 196.376 210.438 196.376 212.244C196.376 213.266 195.844 214.162 194.878 214.47V214.54C196.096 214.778 196.964 215.59 196.964 216.99C196.964 219.006 195.368 220 193.072 220H189.81ZM191.098 214.092H192.624C194.388 214.092 195.102 213.462 195.102 212.412C195.102 211.208 194.29 210.76 192.68 210.76H191.098V214.092ZM191.098 218.964H192.89C194.654 218.964 195.69 218.334 195.69 216.948C195.69 215.674 194.696 215.1 192.89 215.1H191.098V218.964Z" fill="#BFBFBF"/>
<rect x="40" y="244" width="48" height="32" rx="4" fill="url(#paint0_linear_255_13337)"/>
<rect x="100" y="244" width="48" height="32" rx="4" fill="#EC8C0B"/>
<path d="M242.256 220.182C240.8 220.182 239.554 219.594 238.672 218.67L239.442 217.774C240.17 218.544 241.206 219.048 242.27 219.048C243.628 219.048 244.426 218.376 244.426 217.382C244.426 216.318 243.684 215.982 242.704 215.548L241.234 214.904C240.282 214.498 239.148 213.77 239.148 212.272C239.148 210.69 240.52 209.556 242.382 209.556C243.6 209.556 244.678 210.074 245.392 210.816L244.72 211.642C244.09 211.054 243.334 210.69 242.382 210.69C241.22 210.69 240.464 211.264 240.464 212.174C240.464 213.182 241.374 213.56 242.172 213.896L243.628 214.526C244.818 215.044 245.742 215.744 245.742 217.27C245.742 218.894 244.398 220.182 242.256 220.182ZM250.708 220.182C248.678 220.182 247.068 218.712 247.068 216.206C247.068 213.728 248.734 212.202 250.47 212.202C252.416 212.202 253.508 213.602 253.508 215.772C253.508 216.052 253.48 216.304 253.452 216.5H248.328C248.412 218.124 249.406 219.16 250.848 219.16C251.59 219.16 252.178 218.936 252.752 218.558L253.2 219.412C252.542 219.846 251.73 220.182 250.708 220.182ZM248.314 215.59H252.388C252.388 214.05 251.688 213.224 250.498 213.224C249.42 213.224 248.468 214.078 248.314 215.59ZM258.376 220.182C256.36 220.182 254.82 218.726 254.82 216.206C254.82 213.672 256.514 212.202 258.474 212.202C259.468 212.202 260.154 212.622 260.686 213.098L260.042 213.938C259.608 213.546 259.118 213.28 258.53 213.28C257.144 213.28 256.136 214.456 256.136 216.206C256.136 217.956 257.088 219.118 258.488 219.118C259.188 219.118 259.804 218.782 260.28 218.362L260.84 219.23C260.154 219.818 259.286 220.182 258.376 220.182ZM265.129 220.182C263.267 220.182 261.615 218.726 261.615 216.206C261.615 213.672 263.267 212.202 265.129 212.202C266.991 212.202 268.643 213.672 268.643 216.206C268.643 218.726 266.991 220.182 265.129 220.182ZM265.129 219.118C266.445 219.118 267.341 217.956 267.341 216.206C267.341 214.456 266.445 213.28 265.129 213.28C263.813 213.28 262.931 214.456 262.931 216.206C262.931 217.956 263.813 219.118 265.129 219.118ZM270.665 220V212.398H271.715L271.841 213.504H271.869C272.583 212.776 273.381 212.202 274.417 212.202C276.013 212.202 276.741 213.252 276.741 215.184V220H275.467V215.352C275.467 213.924 275.033 213.322 274.025 213.322C273.241 213.322 272.709 213.714 271.953 214.484V220H270.665ZM281.8 220.182C279.896 220.182 278.664 218.74 278.664 216.206C278.664 213.742 280.218 212.202 281.954 212.202C282.85 212.202 283.424 212.538 284.096 213.084L284.026 211.782V208.856H285.314V220H284.264L284.152 219.104H284.11C283.522 219.692 282.71 220.182 281.8 220.182ZM282.08 219.104C282.78 219.104 283.396 218.768 284.026 218.068V214.078C283.396 213.504 282.808 213.28 282.178 213.28C280.96 213.28 279.98 214.456 279.98 216.192C279.98 218.026 280.75 219.104 282.08 219.104ZM289.642 220.182C288.368 220.182 287.43 219.398 287.43 218.026C287.43 216.374 288.858 215.548 292.092 215.184C292.092 214.204 291.77 213.266 290.524 213.266C289.642 213.266 288.844 213.672 288.242 214.078L287.752 213.196C288.438 212.748 289.502 212.202 290.734 212.202C292.596 212.202 293.366 213.434 293.366 215.324V220H292.316L292.204 219.09H292.162C291.434 219.692 290.58 220.182 289.642 220.182ZM290.006 219.146C290.734 219.146 291.35 218.81 292.092 218.152V216.038C289.53 216.332 288.662 216.962 288.662 217.942C288.662 218.81 289.25 219.146 290.006 219.146ZM295.78 220V212.398H296.83L296.956 213.784H296.984C297.516 212.818 298.3 212.202 299.14 212.202C299.476 212.202 299.714 212.244 299.952 212.37L299.714 213.476C299.462 213.392 299.294 213.35 298.972 213.35C298.342 213.35 297.572 213.826 297.068 215.114V220H295.78ZM301.744 223.276C301.394 223.276 301.086 223.22 300.848 223.122L301.1 222.1C301.254 222.156 301.478 222.226 301.688 222.226C302.542 222.226 303.074 221.526 303.396 220.588L303.564 220.014L300.512 212.398H301.842L303.382 216.612C303.62 217.284 303.872 218.054 304.138 218.768H304.208C304.404 218.068 304.628 217.298 304.824 216.612L306.196 212.398H307.442L304.586 220.644C304.054 222.128 303.256 223.276 301.744 223.276ZM316.04 220.182C313.478 220.182 311.574 218.208 311.574 214.876C311.574 211.558 313.52 209.556 316.124 209.556C317.37 209.556 318.35 210.158 318.938 210.816L318.238 211.656C317.692 211.082 317.02 210.69 316.138 210.69C314.206 210.69 312.904 212.272 312.904 214.834C312.904 217.424 314.136 219.048 316.096 219.048C317.076 219.048 317.818 218.614 318.476 217.886L319.19 218.712C318.378 219.65 317.37 220.182 316.04 220.182ZM323.931 220.182C322.069 220.182 320.417 218.726 320.417 216.206C320.417 213.672 322.069 212.202 323.931 212.202C325.793 212.202 327.445 213.672 327.445 216.206C327.445 218.726 325.793 220.182 323.931 220.182ZM323.931 219.118C325.247 219.118 326.143 217.956 326.143 216.206C326.143 214.456 325.247 213.28 323.931 213.28C322.615 213.28 321.733 214.456 321.733 216.206C321.733 217.956 322.615 219.118 323.931 219.118ZM330.812 220.182C329.86 220.182 329.468 219.566 329.468 218.488V208.856H330.756V218.572C330.756 218.964 330.91 219.118 331.106 219.118C331.176 219.118 331.232 219.118 331.372 219.09L331.554 220.07C331.372 220.126 331.162 220.182 330.812 220.182ZM336.4 220.182C334.538 220.182 332.886 218.726 332.886 216.206C332.886 213.672 334.538 212.202 336.4 212.202C338.262 212.202 339.914 213.672 339.914 216.206C339.914 218.726 338.262 220.182 336.4 220.182ZM336.4 219.118C337.716 219.118 338.612 217.956 338.612 216.206C338.612 214.456 337.716 213.28 336.4 213.28C335.084 213.28 334.202 214.456 334.202 216.206C334.202 217.956 335.084 219.118 336.4 219.118ZM341.936 220V212.398H342.986L343.112 213.784H343.14C343.672 212.818 344.456 212.202 345.296 212.202C345.632 212.202 345.87 212.244 346.108 212.37L345.87 213.476C345.618 213.392 345.45 213.35 345.128 213.35C344.498 213.35 343.728 213.826 343.224 215.114V220H341.936Z" fill="white"/>
<path d="M356.414 220L356.792 216.794H355.56V215.912H356.904L357.198 213.588H355.868V212.706H357.296L357.66 209.836H358.486L358.122 212.706H360.208L360.572 209.836H361.412L361.048 212.706H362.308V213.588H360.95L360.656 215.912H362V216.794H360.544L360.166 220H359.326L359.704 216.794H357.632L357.24 220H356.414ZM357.73 215.912H359.816L360.11 213.588H358.024L357.73 215.912ZM366.434 220.182C364.824 220.182 363.844 219.51 363.144 218.824L363.788 217.984C364.362 218.572 365.118 219.118 366.308 219.118C367.526 219.118 368.492 218.236 368.492 216.85C368.492 215.464 367.652 214.638 366.364 214.638C365.678 214.638 365.244 214.862 364.656 215.254L363.97 214.82L364.306 210.018H369.29V211.124H365.426L365.16 214.092C365.622 213.826 366.084 213.686 366.7 213.686C368.394 213.686 369.794 214.652 369.794 216.808C369.794 218.964 368.156 220.182 366.434 220.182ZM370.587 220L374.059 209.738H375.501L378.987 220H377.615L376.635 216.864H372.883L371.889 220H370.587ZM373.205 215.842H376.313L375.823 214.26C375.445 213.098 375.123 211.978 374.787 210.788H374.731C374.409 211.992 374.073 213.098 373.709 214.26L373.205 215.842ZM382.717 220.182C381.107 220.182 380.127 219.51 379.427 218.824L380.071 217.984C380.645 218.572 381.401 219.118 382.591 219.118C383.809 219.118 384.775 218.236 384.775 216.85C384.775 215.464 383.935 214.638 382.647 214.638C381.961 214.638 381.527 214.862 380.939 215.254L380.253 214.82L380.589 210.018H385.573V211.124H381.709L381.443 214.092C381.905 213.826 382.367 213.686 382.983 213.686C384.677 213.686 386.077 214.652 386.077 216.808C386.077 218.964 384.439 220.182 382.717 220.182ZM388.228 220V209.738H390.79C393.94 209.738 395.62 211.558 395.62 214.834C395.62 218.082 393.94 220 390.846 220H388.228ZM389.516 218.936H390.678C393.1 218.936 394.29 217.424 394.29 214.834C394.29 212.23 393.1 210.788 390.678 210.788H389.516V218.936ZM400.373 220.182C398.469 220.182 397.097 219.034 397.097 217.452C397.097 216.15 398.049 215.254 398.973 214.75V214.694C398.231 214.176 397.587 213.434 397.587 212.384C397.587 210.858 398.805 209.836 400.401 209.836C402.151 209.836 403.215 210.942 403.215 212.482C403.215 213.532 402.459 214.428 401.857 214.89V214.946C402.739 215.478 403.579 216.192 403.579 217.536C403.579 219.02 402.291 220.182 400.373 220.182ZM401.073 214.568C401.745 213.952 402.123 213.294 402.123 212.552C402.123 211.572 401.479 210.788 400.387 210.788C399.435 210.788 398.749 211.418 398.749 212.384C398.749 213.588 399.869 214.092 401.073 214.568ZM400.387 219.23C401.577 219.23 402.361 218.516 402.361 217.494C402.361 216.178 401.087 215.744 399.645 215.156C398.833 215.674 398.231 216.402 398.231 217.34C398.231 218.432 399.155 219.23 400.387 219.23ZM408.111 220.182C406.109 220.182 404.919 218.32 404.919 214.974C404.919 211.628 406.109 209.836 408.111 209.836C410.099 209.836 411.303 211.642 411.303 214.974C411.303 218.32 410.099 220.182 408.111 220.182ZM408.111 219.146C409.273 219.146 410.071 217.9 410.071 214.974C410.071 212.048 409.273 210.858 408.111 210.858C406.949 210.858 406.151 212.048 406.151 214.974C406.151 217.9 406.949 219.146 408.111 219.146Z" fill="#BFBFBF"/>
<rect x="238" y="244" width="48" height="32" rx="4" fill="#868BBF"/>
<rect x="298" y="244" width="48" height="32" rx="4" fill="#5A5D80"/>
<rect x="358" y="244" width="48" height="32" rx="4" fill="#484A66"/>
<rect x="418" y="244" width="48" height="32" rx="4" fill="#222C59"/>
<rect x="478" y="244" width="48" height="32" rx="4" fill="#262A43"/>
<path d="M43.542 318V308.83H40.434V307.738H47.952V308.83H44.844V318H43.542ZM51.7098 318.182C49.6798 318.182 48.0698 316.712 48.0698 314.206C48.0698 311.728 49.7358 310.202 51.4718 310.202C53.4178 310.202 54.5098 311.602 54.5098 313.772C54.5098 314.052 54.4818 314.304 54.4538 314.5H49.3298C49.4138 316.124 50.4078 317.16 51.8498 317.16C52.5918 317.16 53.1798 316.936 53.7538 316.558L54.2018 317.412C53.5438 317.846 52.7318 318.182 51.7098 318.182ZM49.3158 313.59H53.3898C53.3898 312.05 52.6898 311.224 51.4998 311.224C50.4218 311.224 49.4698 312.078 49.3158 313.59ZM55.1944 318L57.7004 314.038L55.3904 310.398H56.7764L57.7984 312.064C58.0224 312.498 58.2884 312.904 58.5404 313.338H58.6104C58.8344 312.904 59.0444 312.498 59.2824 312.064L60.2204 310.398H61.5504L59.2404 314.164L61.7464 318H60.3464L59.2264 316.222C58.9744 315.76 58.6944 315.298 58.4004 314.864H58.3304C58.0644 315.298 57.8264 315.76 57.5604 316.222L56.5384 318H55.1944ZM65.2422 318.182C63.6322 318.182 63.0862 317.174 63.0862 315.648V311.434H61.9522V310.468L63.1562 310.398L63.2962 308.256H64.3602V310.398H66.4322V311.434H64.3602V315.69C64.3602 316.614 64.6542 317.146 65.5362 317.146C65.8162 317.146 66.1522 317.048 66.4042 316.936L66.6562 317.902C66.2222 318.042 65.7182 318.182 65.2422 318.182ZM75.2604 318.182C72.6984 318.182 70.7944 316.208 70.7944 312.876C70.7944 309.558 72.7404 307.556 75.3444 307.556C76.5904 307.556 77.5704 308.158 78.1584 308.816L77.4584 309.656C76.9124 309.082 76.2404 308.69 75.3584 308.69C73.4264 308.69 72.1244 310.272 72.1244 312.834C72.1244 315.424 73.3564 317.048 75.3164 317.048C76.2964 317.048 77.0384 316.614 77.6964 315.886L78.4104 316.712C77.5984 317.65 76.5904 318.182 75.2604 318.182ZM83.1522 318.182C81.2902 318.182 79.6382 316.726 79.6382 314.206C79.6382 311.672 81.2902 310.202 83.1522 310.202C85.0142 310.202 86.6662 311.672 86.6662 314.206C86.6662 316.726 85.0142 318.182 83.1522 318.182ZM83.1522 317.118C84.4682 317.118 85.3642 315.956 85.3642 314.206C85.3642 312.456 84.4682 311.28 83.1522 311.28C81.8362 311.28 80.9542 312.456 80.9542 314.206C80.9542 315.956 81.8362 317.118 83.1522 317.118ZM90.0324 318.182C89.0804 318.182 88.6884 317.566 88.6884 316.488V306.856H89.9764V316.572C89.9764 316.964 90.1304 317.118 90.3264 317.118C90.3964 317.118 90.4524 317.118 90.5924 317.09L90.7744 318.07C90.5924 318.126 90.3824 318.182 90.0324 318.182ZM95.6209 318.182C93.7589 318.182 92.1069 316.726 92.1069 314.206C92.1069 311.672 93.7589 310.202 95.6209 310.202C97.4829 310.202 99.1349 311.672 99.1349 314.206C99.1349 316.726 97.4829 318.182 95.6209 318.182ZM95.6209 317.118C96.9369 317.118 97.8329 315.956 97.8329 314.206C97.8329 312.456 96.9369 311.28 95.6209 311.28C94.3049 311.28 93.4229 312.456 93.4229 314.206C93.4229 315.956 94.3049 317.118 95.6209 317.118ZM101.157 318V310.398H102.207L102.333 311.784H102.361C102.893 310.818 103.677 310.202 104.517 310.202C104.853 310.202 105.091 310.244 105.329 310.37L105.091 311.476C104.839 311.392 104.671 311.35 104.349 311.35C103.719 311.35 102.949 311.826 102.445 313.114V318H101.157Z" fill="white"/>
<rect x="40" y="342" width="48" height="32" rx="4" fill="white"/>
<rect x="100" y="342" width="48" height="32" rx="4" fill="#D9D9D9"/>
<rect x="160" y="342" width="48" height="32" rx="4" fill="#BFBFBF"/>
<rect x="220" y="342" width="48" height="32" rx="4" fill="black" fill-opacity="0.5"/>
<rect x="280" y="342" width="48" height="32" rx="4" fill="#737373"/>
<path d="M40 178H550" stroke="#D9D9D9"/>
<defs>
<linearGradient id="paint0_linear_255_13337" x1="64" y1="244" x2="64" y2="276" gradientUnits="userSpaceOnUse">
<stop stop-color="#DB4415"/>
<stop offset="1" stop-color="#EA9117"/>
</linearGradient>
</defs>
</svg>
