<svg width="243" height="154" viewBox="0 0 243 154" fill="none" xmlns="http://www.w3.org/2000/svg">
<g filter="url(#filter0_d_1046_2265)">
<rect x="4" y="4" width="235" height="54" rx="4" fill="white" shape-rendering="crispEdges"/>
<rect x="4.5" y="4.5" width="234" height="53" rx="3.5" stroke="#FAAA40" shape-rendering="crispEdges"/>
<path d="M35.008 24.12H42V29.032H34.88V28.104H40.864V25.048H35.008V24.12ZM34.08 26.104H41.424V26.968H34.08V26.104ZM41.312 26.056H43.136V26.984H41.312V26.056ZM33.568 29.816H43.008V32.744H41.92V30.808H34.624V32.776H33.568V29.816ZM34.64 32.376H41.616V33.336H35.728V37.096H34.64V32.376ZM41.072 32.376H42.112V36.008C42.112 36.264 42.08 36.472 42.016 36.632C41.9627 36.7813 41.8453 36.8987 41.664 36.984C41.4613 37.08 41.2107 37.1333 40.912 37.144C40.624 37.1547 40.272 37.16 39.856 37.16C39.8347 37.0107 39.792 36.8453 39.728 36.664C39.6747 36.4827 39.6107 36.3227 39.536 36.184C39.856 36.1947 40.1333 36.2 40.368 36.2C40.6027 36.2 40.7627 36.2 40.848 36.2C40.944 36.1893 41.0027 36.1733 41.024 36.152C41.056 36.12 41.072 36.0667 41.072 35.992V32.376ZM37.744 30.76H38.832V38.264H37.744V30.76ZM28.448 31.864C29.056 31.6827 29.792 31.4587 30.656 31.192C31.52 30.9253 32.4 30.648 33.296 30.36L33.456 31.464C32.6347 31.7413 31.8133 32.0187 30.992 32.296C30.1707 32.5627 29.424 32.8027 28.752 33.016L28.448 31.864ZM28.672 26.792H33.584V27.912H28.672V26.792ZM30.672 23.576H31.792V36.888C31.792 37.208 31.7493 37.4587 31.664 37.64C31.5893 37.8213 31.4507 37.96 31.248 38.056C31.056 38.152 30.8 38.216 30.48 38.248C30.16 38.28 29.744 38.2907 29.232 38.28C29.2213 38.1413 29.1787 37.96 29.104 37.736C29.04 37.5227 28.9707 37.3307 28.896 37.16C29.2373 37.1707 29.5467 37.176 29.824 37.176C30.112 37.1867 30.304 37.1867 30.4 37.176C30.496 37.176 30.5653 37.1547 30.608 37.112C30.6507 37.08 30.672 37.0053 30.672 36.888V23.576ZM44.784 24.328H50.656V25.432H44.784V24.328ZM46.416 29.304H50.048V36.232H46.416V35.176H48.976V30.376H46.416V29.304ZM46.72 24.856L47.856 25.032C47.696 26.1413 47.4933 27.224 47.248 28.28C47.0027 29.3253 46.704 30.3067 46.352 31.224C46.0107 32.1307 45.5947 32.936 45.104 33.64C45.0613 33.544 44.9973 33.4267 44.912 33.288C44.8267 33.1493 44.736 33.0107 44.64 32.872C44.5547 32.7333 44.4693 32.6267 44.384 32.552C44.8107 31.944 45.1733 31.2347 45.472 30.424C45.7707 29.6027 46.0213 28.7227 46.224 27.784C46.4267 26.8347 46.592 25.8587 46.72 24.856ZM45.904 29.304H46.96V37.544H45.904V29.304ZM51.92 26.76H58.416V27.736H51.92V26.76ZM51.92 29.208H58.416V30.2H51.92V29.208ZM51.344 31.72H58.368V32.792H51.344V31.72ZM54.64 24.776H55.744V32.184H54.64V24.776ZM52.672 34.056L53.504 33.944C53.5893 34.4133 53.6587 34.92 53.712 35.464C53.776 36.008 53.8027 36.4827 53.792 36.888L52.912 37.032C52.9227 36.6267 52.9067 36.152 52.864 35.608C52.8213 35.0533 52.7573 34.536 52.672 34.056ZM54.368 33.928L55.136 33.72C55.3067 34.104 55.4613 34.5253 55.6 34.984C55.7387 35.4427 55.84 35.8373 55.904 36.168L55.088 36.424C55.0347 36.0827 54.9387 35.6827 54.8 35.224C54.672 34.7547 54.528 34.3227 54.368 33.928ZM55.968 33.576L56.624 33.304C56.8587 33.592 57.0773 33.9173 57.28 34.28C57.4827 34.632 57.6373 34.936 57.744 35.192L57.04 35.512C56.944 35.256 56.7947 34.9467 56.592 34.584C56.3893 34.2213 56.1813 33.8853 55.968 33.576ZM51.104 33.56L52.016 33.784C51.9413 34.4773 51.8133 35.1707 51.632 35.864C51.4507 36.5467 51.1733 37.112 50.8 37.56L49.936 37.08C50.288 36.6747 50.5547 36.152 50.736 35.512C50.9173 34.8613 51.04 34.2107 51.104 33.56ZM51.344 24.232H58.8V25.288H52.448V32.264H51.344V24.232ZM58.016 31.72H59.12C59.12 31.72 59.1147 31.784 59.104 31.912C59.104 32.04 59.0987 32.1467 59.088 32.232C59.0347 33.48 58.9707 34.488 58.896 35.256C58.832 36.0133 58.752 36.5947 58.656 37C58.5707 37.3947 58.4587 37.672 58.32 37.832C58.192 37.9813 58.0533 38.088 57.904 38.152C57.7653 38.216 57.584 38.2587 57.36 38.28C57.1787 38.2907 56.928 38.296 56.608 38.296C56.2987 38.296 55.968 38.2853 55.616 38.264C55.6053 38.1147 55.568 37.9387 55.504 37.736C55.4507 37.544 55.3813 37.3733 55.296 37.224C55.648 37.256 55.968 37.272 56.256 37.272C56.544 37.2827 56.7467 37.288 56.864 37.288C57.0027 37.288 57.104 37.2773 57.168 37.256C57.2427 37.2347 57.3173 37.192 57.392 37.128C57.488 37.0107 57.5733 36.7707 57.648 36.408C57.7227 36.0453 57.7867 35.5067 57.84 34.792C57.904 34.0667 57.9627 33.112 58.016 31.928V31.72ZM69.152 30.648H70.384V36.216C70.384 36.472 70.4267 36.6427 70.512 36.728C70.608 36.8027 70.8267 36.84 71.168 36.84C71.2427 36.84 71.3813 36.84 71.584 36.84C71.7867 36.84 72.0107 36.84 72.256 36.84C72.512 36.84 72.7467 36.84 72.96 36.84C73.1733 36.84 73.3333 36.84 73.44 36.84C73.6533 36.84 73.8133 36.7813 73.92 36.664C74.0373 36.536 74.1173 36.2907 74.16 35.928C74.2027 35.5653 74.2347 35.0267 74.256 34.312C74.352 34.376 74.464 34.4453 74.592 34.52C74.72 34.584 74.8533 34.6427 74.992 34.696C75.1413 34.7387 75.264 34.7707 75.36 34.792C75.328 35.624 75.2533 36.2693 75.136 36.728C75.0187 37.176 74.832 37.4907 74.576 37.672C74.3307 37.8533 73.9787 37.944 73.52 37.944C73.4453 37.944 73.2853 37.944 73.04 37.944C72.8053 37.944 72.5493 37.944 72.272 37.944C71.9947 37.944 71.7387 37.944 71.504 37.944C71.2693 37.944 71.1147 37.944 71.04 37.944C70.5493 37.944 70.1653 37.8907 69.888 37.784C69.6107 37.688 69.4187 37.512 69.312 37.256C69.2053 37.0107 69.152 36.664 69.152 36.216V30.648ZM65.536 30.824H66.784C66.7093 31.7627 66.592 32.6213 66.432 33.4C66.272 34.168 66.0107 34.856 65.648 35.464C65.296 36.072 64.7947 36.6 64.144 37.048C63.504 37.5067 62.6667 37.8907 61.632 38.2C61.5893 38.104 61.5253 37.992 61.44 37.864C61.3653 37.7467 61.28 37.624 61.184 37.496C61.0987 37.3787 61.0133 37.2827 60.928 37.208C61.888 36.9413 62.656 36.616 63.232 36.232C63.8187 35.8373 64.2667 35.3787 64.576 34.856C64.896 34.3227 65.12 33.7253 65.248 33.064C65.3867 32.392 65.4827 31.6453 65.536 30.824ZM69.408 27.976L70.384 27.4C70.8747 27.7627 71.376 28.1787 71.888 28.648C72.4 29.1067 72.8747 29.5653 73.312 30.024C73.7493 30.4827 74.1013 30.9093 74.368 31.304L73.312 31.96C73.0667 31.576 72.7307 31.1493 72.304 30.68C71.8773 30.2107 71.408 29.7413 70.896 29.272C70.3947 28.792 69.8987 28.36 69.408 27.976ZM61.072 25.688H74.976V26.84H61.072V25.688ZM62.4 31.592C62.3787 31.5067 62.3413 31.3893 62.288 31.24C62.2347 31.0907 62.1813 30.936 62.128 30.776C62.0747 30.616 62.016 30.4773 61.952 30.36C62.1547 30.3173 62.3627 30.1947 62.576 29.992C62.7893 29.7787 63.04 29.5013 63.328 29.16C63.4773 29 63.696 28.7333 63.984 28.36C64.2827 27.9867 64.6133 27.544 64.976 27.032C65.3493 26.52 65.7227 25.9707 66.096 25.384C66.4693 24.7867 66.816 24.184 67.136 23.576L68.48 24.024C67.968 24.888 67.4187 25.736 66.832 26.568C66.256 27.4 65.6693 28.184 65.072 28.92C64.4747 29.656 63.888 30.312 63.312 30.888V30.92C63.312 30.92 63.264 30.9467 63.168 31C63.0827 31.0427 62.976 31.1013 62.848 31.176C62.7307 31.24 62.624 31.3093 62.528 31.384C62.4427 31.4587 62.4 31.528 62.4 31.592ZM62.4 31.592L62.384 30.664L63.264 30.216L72.864 29.8C72.896 29.96 72.928 30.1467 72.96 30.36C73.0027 30.5627 73.04 30.728 73.072 30.856C71.5467 30.9413 70.2347 31.0107 69.136 31.064C68.048 31.1173 67.1253 31.1707 66.368 31.224C65.6213 31.2667 65.0133 31.304 64.544 31.336C64.0747 31.368 63.7013 31.4 63.424 31.432C63.1467 31.4533 62.9333 31.48 62.784 31.512C62.6347 31.5333 62.5067 31.56 62.4 31.592ZM79.184 33.16H88.784V33.96H79.184V33.16ZM79.216 31.176H89.472V35.944H79.216V35.064H88.288V32.056H79.216V31.176ZM83.312 31.608H84.48V36.44C84.48 36.7067 84.5547 36.8827 84.704 36.968C84.8533 37.0533 85.1787 37.096 85.68 37.096C85.776 37.096 85.936 37.096 86.16 37.096C86.3947 37.096 86.6613 37.096 86.96 37.096C87.2587 37.096 87.5573 37.096 87.856 37.096C88.1653 37.096 88.4427 37.096 88.688 37.096C88.944 37.096 89.136 37.096 89.264 37.096C89.552 37.096 89.7653 37.0533 89.904 36.968C90.0533 36.872 90.16 36.6907 90.224 36.424C90.288 36.1467 90.3307 35.7413 90.352 35.208C90.48 35.2933 90.6453 35.3733 90.848 35.448C91.0507 35.5227 91.232 35.576 91.392 35.608C91.3387 36.2587 91.248 36.76 91.12 37.112C90.992 37.464 90.7893 37.7093 90.512 37.848C90.2347 37.9973 89.8453 38.072 89.344 38.072C89.2587 38.072 89.088 38.072 88.832 38.072C88.5867 38.072 88.2987 38.072 87.968 38.072C87.6373 38.072 87.3067 38.072 86.976 38.072C86.656 38.072 86.368 38.072 86.112 38.072C85.8667 38.072 85.7013 38.072 85.616 38.072C85.0293 38.072 84.5653 38.024 84.224 37.928C83.8827 37.8427 83.6427 37.6773 83.504 37.432C83.376 37.1973 83.312 36.8667 83.312 36.44V31.608ZM78.608 31.176H79.76V36.776H78.608V31.176ZM77.92 24.2H90.064V25.064H77.92V24.2ZM83.36 24.424H84.528V30.584H83.36V24.424ZM77.216 26.072H90.816V29.528H89.616V26.936H78.368V29.528H77.216V26.072ZM78.656 29.72C79.1573 29.656 79.7387 29.576 80.4 29.48C81.0613 29.384 81.7493 29.2827 82.464 29.176L82.512 29.928C81.8933 30.0667 81.2853 30.1947 80.688 30.312C80.0907 30.4293 79.5307 30.5413 79.008 30.648L78.656 29.72ZM79.056 27.896L79.408 27.24C79.76 27.304 80.128 27.384 80.512 27.48C80.896 27.5653 81.264 27.6613 81.616 27.768C81.9787 27.8747 82.2773 27.9813 82.512 28.088L82.16 28.824C81.9253 28.7173 81.632 28.6053 81.28 28.488C80.928 28.3707 80.5547 28.2587 80.16 28.152C79.776 28.0453 79.408 27.96 79.056 27.896ZM88.448 27.16L88.992 27.864C88.6827 27.992 88.3413 28.1147 87.968 28.232C87.6053 28.3387 87.2373 28.44 86.864 28.536C86.4907 28.6213 86.1493 28.696 85.84 28.76L85.408 28.152C85.7173 28.0773 86.0587 27.9813 86.432 27.864C86.8053 27.7467 87.168 27.624 87.52 27.496C87.8827 27.368 88.192 27.256 88.448 27.16ZM85.2 29.816L85.488 29.08C85.904 29.1227 86.3413 29.1867 86.8 29.272C87.2693 29.3573 87.7173 29.4533 88.144 29.56C88.5813 29.6667 88.944 29.768 89.232 29.864L88.976 30.696C88.6773 30.5893 88.3093 30.4827 87.872 30.376C87.4453 30.2587 86.9973 30.152 86.528 30.056C86.0693 29.9493 85.6267 29.8693 85.2 29.816ZM95.7541 39.864L100.554 24.296H101.61L96.8261 39.864H95.7541ZM114.574 30.648H115.806V36.216C115.806 36.472 115.849 36.6427 115.934 36.728C116.03 36.8027 116.249 36.84 116.59 36.84C116.665 36.84 116.803 36.84 117.006 36.84C117.209 36.84 117.433 36.84 117.678 36.84C117.934 36.84 118.169 36.84 118.382 36.84C118.595 36.84 118.755 36.84 118.862 36.84C119.075 36.84 119.235 36.7813 119.342 36.664C119.459 36.536 119.539 36.2907 119.582 35.928C119.625 35.5653 119.657 35.0267 119.678 34.312C119.774 34.376 119.886 34.4453 120.014 34.52C120.142 34.584 120.275 34.6427 120.414 34.696C120.563 34.7387 120.686 34.7707 120.782 34.792C120.75 35.624 120.675 36.2693 120.558 36.728C120.441 37.176 120.254 37.4907 119.998 37.672C119.753 37.8533 119.401 37.944 118.942 37.944C118.867 37.944 118.707 37.944 118.462 37.944C118.227 37.944 117.971 37.944 117.694 37.944C117.417 37.944 117.161 37.944 116.926 37.944C116.691 37.944 116.537 37.944 116.462 37.944C115.971 37.944 115.587 37.8907 115.31 37.784C115.033 37.688 114.841 37.512 114.734 37.256C114.627 37.0107 114.574 36.664 114.574 36.216V30.648ZM110.958 30.824H112.206C112.131 31.7627 112.014 32.6213 111.854 33.4C111.694 34.168 111.433 34.856 111.07 35.464C110.718 36.072 110.217 36.6 109.566 37.048C108.926 37.5067 108.089 37.8907 107.054 38.2C107.011 38.104 106.947 37.992 106.862 37.864C106.787 37.7467 106.702 37.624 106.606 37.496C106.521 37.3787 106.435 37.2827 106.35 37.208C107.31 36.9413 108.078 36.616 108.654 36.232C109.241 35.8373 109.689 35.3787 109.998 34.856C110.318 34.3227 110.542 33.7253 110.67 33.064C110.809 32.392 110.905 31.6453 110.958 30.824ZM114.83 27.976L115.806 27.4C116.297 27.7627 116.798 28.1787 117.31 28.648C117.822 29.1067 118.297 29.5653 118.734 30.024C119.171 30.4827 119.523 30.9093 119.79 31.304L118.734 31.96C118.489 31.576 118.153 31.1493 117.726 30.68C117.299 30.2107 116.83 29.7413 116.318 29.272C115.817 28.792 115.321 28.36 114.83 27.976ZM106.494 25.688H120.398V26.84H106.494V25.688ZM107.822 31.592C107.801 31.5067 107.763 31.3893 107.71 31.24C107.657 31.0907 107.603 30.936 107.55 30.776C107.497 30.616 107.438 30.4773 107.374 30.36C107.577 30.3173 107.785 30.1947 107.998 29.992C108.211 29.7787 108.462 29.5013 108.75 29.16C108.899 29 109.118 28.7333 109.406 28.36C109.705 27.9867 110.035 27.544 110.398 27.032C110.771 26.52 111.145 25.9707 111.518 25.384C111.891 24.7867 112.238 24.184 112.558 23.576L113.902 24.024C113.39 24.888 112.841 25.736 112.254 26.568C111.678 27.4 111.091 28.184 110.494 28.92C109.897 29.656 109.31 30.312 108.734 30.888V30.92C108.734 30.92 108.686 30.9467 108.59 31C108.505 31.0427 108.398 31.1013 108.27 31.176C108.153 31.24 108.046 31.3093 107.95 31.384C107.865 31.4587 107.822 31.528 107.822 31.592ZM107.822 31.592L107.806 30.664L108.686 30.216L118.286 29.8C118.318 29.96 118.35 30.1467 118.382 30.36C118.425 30.5627 118.462 30.728 118.494 30.856C116.969 30.9413 115.657 31.0107 114.558 31.064C113.47 31.1173 112.547 31.1707 111.79 31.224C111.043 31.2667 110.435 31.304 109.966 31.336C109.497 31.368 109.123 31.4 108.846 31.432C108.569 31.4533 108.355 31.48 108.206 31.512C108.057 31.5333 107.929 31.56 107.822 31.592ZM124.606 33.16H134.206V33.96H124.606V33.16ZM124.638 31.176H134.894V35.944H124.638V35.064H133.71V32.056H124.638V31.176ZM128.734 31.608H129.902V36.44C129.902 36.7067 129.977 36.8827 130.126 36.968C130.275 37.0533 130.601 37.096 131.102 37.096C131.198 37.096 131.358 37.096 131.582 37.096C131.817 37.096 132.083 37.096 132.382 37.096C132.681 37.096 132.979 37.096 133.278 37.096C133.587 37.096 133.865 37.096 134.11 37.096C134.366 37.096 134.558 37.096 134.686 37.096C134.974 37.096 135.187 37.0533 135.326 36.968C135.475 36.872 135.582 36.6907 135.646 36.424C135.71 36.1467 135.753 35.7413 135.774 35.208C135.902 35.2933 136.067 35.3733 136.27 35.448C136.473 35.5227 136.654 35.576 136.814 35.608C136.761 36.2587 136.67 36.76 136.542 37.112C136.414 37.464 136.211 37.7093 135.934 37.848C135.657 37.9973 135.267 38.072 134.766 38.072C134.681 38.072 134.51 38.072 134.254 38.072C134.009 38.072 133.721 38.072 133.39 38.072C133.059 38.072 132.729 38.072 132.398 38.072C132.078 38.072 131.79 38.072 131.534 38.072C131.289 38.072 131.123 38.072 131.038 38.072C130.451 38.072 129.987 38.024 129.646 37.928C129.305 37.8427 129.065 37.6773 128.926 37.432C128.798 37.1973 128.734 36.8667 128.734 36.44V31.608ZM124.03 31.176H125.182V36.776H124.03V31.176ZM123.342 24.2H135.486V25.064H123.342V24.2ZM128.782 24.424H129.95V30.584H128.782V24.424ZM122.638 26.072H136.238V29.528H135.038V26.936H123.79V29.528H122.638V26.072ZM124.078 29.72C124.579 29.656 125.161 29.576 125.822 29.48C126.483 29.384 127.171 29.2827 127.886 29.176L127.934 29.928C127.315 30.0667 126.707 30.1947 126.11 30.312C125.513 30.4293 124.953 30.5413 124.43 30.648L124.078 29.72ZM124.478 27.896L124.83 27.24C125.182 27.304 125.55 27.384 125.934 27.48C126.318 27.5653 126.686 27.6613 127.038 27.768C127.401 27.8747 127.699 27.9813 127.934 28.088L127.582 28.824C127.347 28.7173 127.054 28.6053 126.702 28.488C126.35 28.3707 125.977 28.2587 125.582 28.152C125.198 28.0453 124.83 27.96 124.478 27.896ZM133.87 27.16L134.414 27.864C134.105 27.992 133.763 28.1147 133.39 28.232C133.027 28.3387 132.659 28.44 132.286 28.536C131.913 28.6213 131.571 28.696 131.262 28.76L130.83 28.152C131.139 28.0773 131.481 27.9813 131.854 27.864C132.227 27.7467 132.59 27.624 132.942 27.496C133.305 27.368 133.614 27.256 133.87 27.16ZM130.622 29.816L130.91 29.08C131.326 29.1227 131.763 29.1867 132.222 29.272C132.691 29.3573 133.139 29.4533 133.566 29.56C134.003 29.6667 134.366 29.768 134.654 29.864L134.398 30.696C134.099 30.5893 133.731 30.4827 133.294 30.376C132.867 30.2587 132.419 30.152 131.95 30.056C131.491 29.9493 131.049 29.8693 130.622 29.816ZM144.83 26.2H152.174V27.208H144.83V35.16H143.742V27.272L144.734 26.2H144.83ZM144.254 28.84H151.726V29.8H144.254V28.84ZM144.302 31.448H151.742V32.424H144.302V31.448ZM144.27 34.136H152.542V35.16H144.27V34.136ZM147.646 26.632H148.702V34.664H147.646V26.632ZM145.006 23.656L146.03 23.944C145.753 24.7227 145.427 25.496 145.054 26.264C144.681 27.0213 144.275 27.736 143.838 28.408C143.411 29.08 142.963 29.672 142.494 30.184C142.462 30.0987 142.403 29.9973 142.318 29.88C142.233 29.7627 142.147 29.6453 142.062 29.528C141.977 29.4107 141.897 29.3147 141.822 29.24C142.462 28.5467 143.059 27.704 143.614 26.712C144.179 25.72 144.643 24.7013 145.006 23.656ZM147.198 24.088L148.206 23.784C148.451 24.1787 148.691 24.616 148.926 25.096C149.161 25.5653 149.326 25.9653 149.422 26.296L148.382 26.648C148.275 26.3067 148.11 25.896 147.886 25.416C147.662 24.9253 147.433 24.4827 147.198 24.088ZM138.75 24.12L139.662 23.576C139.907 23.832 140.158 24.1093 140.414 24.408C140.681 24.7067 140.926 25 141.15 25.288C141.385 25.5653 141.571 25.8107 141.71 26.024L140.798 26.68C140.649 26.456 140.457 26.1947 140.222 25.896C139.998 25.5973 139.758 25.2933 139.502 24.984C139.246 24.664 138.995 24.376 138.75 24.12ZM138.174 27.256H141.678V28.264H138.174V27.256ZM141.038 34.584C141.369 35.288 141.817 35.8107 142.382 36.152C142.958 36.4933 143.651 36.7173 144.462 36.824C145.283 36.92 146.222 36.9733 147.278 36.984C147.843 36.984 148.462 36.9733 149.134 36.952C149.806 36.9307 150.473 36.904 151.134 36.872C151.806 36.84 152.409 36.8027 152.942 36.76C152.889 36.8453 152.835 36.9573 152.782 37.096C152.729 37.2347 152.681 37.3733 152.638 37.512C152.595 37.6613 152.563 37.7947 152.542 37.912C152.051 37.9333 151.507 37.9547 150.91 37.976C150.313 38.008 149.705 38.024 149.086 38.024C148.467 38.0347 147.865 38.04 147.278 38.04C146.339 38.04 145.497 38.0027 144.75 37.928C144.014 37.8533 143.363 37.7093 142.798 37.496C142.233 37.2827 141.737 36.9733 141.31 36.568C140.883 36.1627 140.521 35.6293 140.222 34.968L141.038 34.584ZM141.246 31.24H141.534L141.742 31.224L142.334 31.448C142.067 33.144 141.614 34.5627 140.974 35.704C140.334 36.8347 139.566 37.704 138.67 38.312C138.617 38.2267 138.542 38.1307 138.446 38.024C138.35 37.9173 138.249 37.8107 138.142 37.704C138.046 37.608 137.955 37.5387 137.87 37.496C138.723 36.952 139.443 36.1733 140.03 35.16C140.617 34.1467 141.022 32.9093 141.246 31.448V31.24ZM138.398 32.456V31.528L138.974 31.24H141.646V32.216H139.358C139.155 32.216 138.958 32.2427 138.766 32.296C138.585 32.3387 138.462 32.392 138.398 32.456ZM138.398 32.456C138.377 32.36 138.334 32.2427 138.27 32.104C138.217 31.9653 138.163 31.8267 138.11 31.688C138.057 31.5493 138.003 31.4427 137.95 31.368C138.078 31.336 138.206 31.288 138.334 31.224C138.462 31.1493 138.595 31.032 138.734 30.872C138.862 30.7547 139.043 30.552 139.278 30.264C139.513 29.9653 139.763 29.6347 140.03 29.272C140.297 28.8987 140.547 28.5413 140.782 28.2C141.027 27.8587 141.219 27.5813 141.358 27.368V27.336L141.726 27.176L142.51 27.544C142.318 27.8213 142.089 28.1467 141.822 28.52C141.555 28.8827 141.273 29.2613 140.974 29.656C140.675 30.04 140.382 30.4133 140.094 30.776C139.806 31.1387 139.545 31.448 139.31 31.704C139.31 31.704 139.262 31.7307 139.166 31.784C139.081 31.8267 138.974 31.8907 138.846 31.976C138.729 32.0507 138.622 32.1307 138.526 32.216C138.441 32.2907 138.398 32.3707 138.398 32.456ZM157.022 28.088H168.414V29.08H157.022V28.088ZM157.246 32.76H166.414V33.752H157.246V32.76ZM159.598 26.696H160.75V30.776H164.638V26.696H165.822V31.736H159.598V26.696ZM166.094 32.76H166.334L166.542 32.712L167.294 33.112C166.857 33.9333 166.275 34.6373 165.55 35.224C164.835 35.8107 164.019 36.3013 163.102 36.696C162.185 37.08 161.209 37.3893 160.174 37.624C159.139 37.8693 158.073 38.056 156.974 38.184C156.942 38.0453 156.878 37.8747 156.782 37.672C156.686 37.4693 156.59 37.2987 156.494 37.16C157.507 37.0747 158.505 36.9307 159.486 36.728C160.478 36.5253 161.401 36.2587 162.254 35.928C163.118 35.5867 163.881 35.1707 164.542 34.68C165.203 34.1893 165.721 33.608 166.094 32.936V32.76ZM159.806 33.56C160.339 34.264 161.054 34.872 161.95 35.384C162.857 35.8853 163.891 36.2907 165.054 36.6C166.227 36.9093 167.481 37.1227 168.814 37.24C168.729 37.3253 168.638 37.4267 168.542 37.544C168.457 37.672 168.377 37.8 168.302 37.928C168.227 38.056 168.163 38.1733 168.11 38.28C166.755 38.12 165.481 37.8587 164.286 37.496C163.102 37.144 162.041 36.6747 161.102 36.088C160.163 35.5013 159.39 34.7973 158.782 33.976L159.806 33.56ZM155.998 25.144H168.59V26.28H155.998V25.144ZM155.438 25.144H156.638V29.496C156.638 30.136 156.617 30.8347 156.574 31.592C156.542 32.3387 156.473 33.1067 156.366 33.896C156.259 34.6853 156.105 35.4533 155.902 36.2C155.699 36.9467 155.427 37.64 155.086 38.28C155.011 38.216 154.905 38.1467 154.766 38.072C154.638 38.008 154.505 37.9387 154.366 37.864C154.227 37.8 154.11 37.7573 154.014 37.736C154.345 37.128 154.601 36.472 154.782 35.768C154.974 35.064 155.118 34.344 155.214 33.608C155.31 32.872 155.369 32.1573 155.39 31.464C155.422 30.76 155.438 30.1093 155.438 29.512V25.144ZM160.99 23.768L162.19 23.48C162.382 23.8 162.563 24.1573 162.734 24.552C162.915 24.936 163.043 25.2613 163.118 25.528L161.87 25.864C161.795 25.5867 161.678 25.2507 161.518 24.856C161.358 24.4507 161.182 24.088 160.99 23.768ZM173.176 39.864L177.976 24.296H179.032L174.248 39.864H173.176ZM183.788 24.328H188.988V25.4H183.788V24.328ZM183.452 29.416H189.564V30.504H183.452V29.416ZM186.092 29.944H187.244V36.872C187.244 37.192 187.201 37.4427 187.116 37.624C187.03 37.8053 186.876 37.944 186.652 38.04C186.428 38.136 186.129 38.1947 185.756 38.216C185.393 38.2373 184.934 38.248 184.38 38.248C184.358 38.088 184.31 37.896 184.236 37.672C184.161 37.4587 184.081 37.2667 183.996 37.096C184.412 37.1067 184.785 37.112 185.116 37.112C185.457 37.112 185.681 37.112 185.788 37.112C185.905 37.1013 185.985 37.08 186.028 37.048C186.07 37.016 186.092 36.9467 186.092 36.84V29.944ZM188.62 24.328H188.876L189.116 24.264L189.868 24.792C189.622 25.1973 189.334 25.6133 189.004 26.04C188.673 26.4667 188.332 26.872 187.98 27.256C187.628 27.6293 187.281 27.96 186.94 28.248C186.865 28.1307 186.753 28.008 186.604 27.88C186.465 27.7413 186.342 27.624 186.236 27.528C186.534 27.272 186.833 26.9733 187.132 26.632C187.43 26.2907 187.713 25.9387 187.98 25.576C188.246 25.2133 188.46 24.8773 188.62 24.568V24.328ZM189.228 29.416H189.388L189.564 29.368L190.316 29.576C190.113 30.184 189.889 30.8133 189.644 31.464C189.409 32.104 189.185 32.6427 188.972 33.08L188.06 32.84C188.188 32.5733 188.321 32.2587 188.46 31.896C188.598 31.5227 188.732 31.1387 188.86 30.744C188.998 30.3387 189.121 29.9547 189.228 29.592V29.416ZM184.252 27.128L184.892 26.344C185.34 26.568 185.798 26.8293 186.268 27.128C186.748 27.4267 187.196 27.736 187.612 28.056C188.028 28.3653 188.364 28.6533 188.62 28.92L187.932 29.816C187.686 29.5387 187.356 29.24 186.94 28.92C186.534 28.5893 186.097 28.2693 185.628 27.96C185.158 27.64 184.7 27.3627 184.252 27.128ZM189.98 24.312H198.108V25.352H189.98V24.312ZM191.724 30.248V31.816H196.412V30.248H191.724ZM191.724 32.712V34.296H196.412V32.712H191.724ZM191.724 27.816V29.352H196.412V27.816H191.724ZM190.604 26.872H197.564V35.224H190.604V26.872ZM193.42 24.808L194.78 24.984C194.652 25.4427 194.518 25.9067 194.38 26.376C194.241 26.8453 194.108 27.2507 193.98 27.592L192.908 27.384C192.972 27.1387 193.036 26.8667 193.1 26.568C193.174 26.2587 193.238 25.9493 193.292 25.64C193.345 25.3307 193.388 25.0533 193.42 24.808ZM192.204 35.512L193.244 36.136C192.956 36.4133 192.609 36.6907 192.204 36.968C191.798 37.2453 191.366 37.5013 190.908 37.736C190.46 37.9707 190.022 38.168 189.596 38.328C189.5 38.2213 189.372 38.088 189.212 37.928C189.052 37.768 188.908 37.6347 188.78 37.528C189.206 37.368 189.638 37.1813 190.076 36.968C190.513 36.744 190.918 36.5093 191.292 36.264C191.665 36.008 191.969 35.7573 192.204 35.512ZM194.684 36.216L195.58 35.592C195.91 35.7733 196.252 35.9867 196.604 36.232C196.966 36.4773 197.308 36.7227 197.628 36.968C197.958 37.2133 198.23 37.4373 198.444 37.64L197.484 38.328C197.292 38.1253 197.036 37.9013 196.716 37.656C196.406 37.4107 196.07 37.16 195.708 36.904C195.345 36.648 195.004 36.4187 194.684 36.216ZM207.308 26.536H212.956V27.672H207.308V26.536ZM212.476 26.536H213.692C213.692 26.536 213.692 26.5787 213.692 26.664C213.692 26.7387 213.686 26.8293 213.676 26.936C213.676 27.032 213.676 27.1067 213.676 27.16C213.622 28.952 213.564 30.4667 213.5 31.704C213.446 32.9413 213.382 33.9547 213.308 34.744C213.244 35.5227 213.158 36.1307 213.052 36.568C212.945 37.0053 212.817 37.3147 212.668 37.496C212.486 37.7307 212.294 37.8907 212.092 37.976C211.9 38.072 211.66 38.136 211.372 38.168C211.105 38.2 210.753 38.2107 210.316 38.2C209.889 38.1893 209.452 38.1733 209.004 38.152C208.993 37.9813 208.95 37.7787 208.876 37.544C208.812 37.32 208.721 37.1227 208.604 36.952C209.116 36.9947 209.58 37.016 209.996 37.016C210.422 37.0267 210.726 37.032 210.908 37.032C211.057 37.0427 211.18 37.032 211.276 37C211.382 36.968 211.478 36.8987 211.564 36.792C211.681 36.6533 211.788 36.376 211.884 35.96C211.98 35.544 212.06 34.9467 212.124 34.168C212.198 33.3787 212.262 32.3813 212.316 31.176C212.369 29.9707 212.422 28.5093 212.476 26.792V26.536ZM207.996 23.56L209.18 23.8C208.988 24.5893 208.753 25.3627 208.476 26.12C208.198 26.8773 207.894 27.5867 207.564 28.248C207.244 28.8987 206.897 29.48 206.524 29.992C206.449 29.928 206.348 29.8533 206.22 29.768C206.092 29.6827 205.964 29.5973 205.836 29.512C205.708 29.4267 205.59 29.3573 205.484 29.304C205.868 28.8453 206.214 28.3067 206.524 27.688C206.844 27.0693 207.126 26.408 207.372 25.704C207.617 25 207.825 24.2853 207.996 23.56ZM207.308 30.424L208.156 29.816C208.518 30.1573 208.881 30.536 209.244 30.952C209.617 31.3573 209.958 31.7627 210.268 32.168C210.577 32.5733 210.817 32.9413 210.988 33.272L210.092 33.976C209.921 33.6453 209.686 33.272 209.388 32.856C209.1 32.44 208.769 32.0187 208.396 31.592C208.033 31.1653 207.67 30.776 207.308 30.424ZM204.172 29.752L205.148 29.496C205.297 29.848 205.446 30.2267 205.596 30.632C205.745 31.0267 205.878 31.4107 205.996 31.784C206.113 32.1573 206.198 32.488 206.252 32.776L205.212 33.096C205.169 32.808 205.089 32.472 204.972 32.088C204.854 31.704 204.726 31.3093 204.588 30.904C204.449 30.488 204.31 30.104 204.172 29.752ZM202.46 33.976L203.436 33.736C203.553 34.312 203.66 34.9253 203.756 35.576C203.862 36.2267 203.937 36.7973 203.98 37.288L202.956 37.544C202.934 37.2133 202.897 36.8453 202.844 36.44C202.801 36.0347 202.742 35.6187 202.668 35.192C202.604 34.7547 202.534 34.3493 202.46 33.976ZM200.54 33.848L201.612 34.072C201.484 34.7547 201.318 35.448 201.116 36.152C200.924 36.8453 200.726 37.4427 200.524 37.944C200.449 37.8907 200.348 37.8427 200.22 37.8C200.092 37.7573 199.964 37.7093 199.836 37.656C199.708 37.6133 199.59 37.5813 199.484 37.56C199.708 37.0693 199.91 36.4933 200.092 35.832C200.273 35.16 200.422 34.4987 200.54 33.848ZM199.9 29.544C199.878 29.4693 199.846 29.3627 199.804 29.224C199.761 29.0853 199.713 28.9467 199.66 28.808C199.606 28.6587 199.558 28.536 199.516 28.44C199.665 28.408 199.82 28.3173 199.98 28.168C200.14 28.008 200.316 27.8053 200.508 27.56C200.604 27.4427 200.748 27.2507 200.94 26.984C201.142 26.7173 201.361 26.3973 201.596 26.024C201.841 25.6507 202.086 25.2507 202.332 24.824C202.588 24.3973 202.817 23.9653 203.02 23.528L204.14 24.008C203.638 24.9147 203.084 25.8 202.476 26.664C201.878 27.528 201.276 28.2747 200.668 28.904V28.936C200.668 28.936 200.625 28.9573 200.54 29C200.465 29.0427 200.38 29.096 200.284 29.16C200.188 29.2133 200.097 29.2773 200.012 29.352C199.937 29.416 199.9 29.48 199.9 29.544ZM199.9 29.544L199.868 28.68L200.444 28.312L203.628 28.024C203.596 28.184 203.569 28.36 203.548 28.552C203.537 28.7333 203.532 28.8827 203.532 29C202.806 29.0747 202.22 29.144 201.772 29.208C201.324 29.2613 200.977 29.3093 200.732 29.352C200.486 29.384 200.3 29.416 200.172 29.448C200.054 29.48 199.964 29.512 199.9 29.544ZM199.98 33.16C199.958 33.0747 199.921 32.968 199.868 32.84C199.825 32.7013 199.777 32.5573 199.724 32.408C199.681 32.2587 199.633 32.1253 199.58 32.008C199.772 31.976 199.969 31.8747 200.172 31.704C200.374 31.5227 200.614 31.288 200.892 31C201.041 30.8613 201.254 30.632 201.532 30.312C201.82 29.9813 202.14 29.592 202.492 29.144C202.854 28.696 203.217 28.2107 203.58 27.688C203.953 27.1653 204.3 26.632 204.62 26.088L205.644 26.744C204.929 27.8213 204.15 28.8667 203.308 29.88C202.465 30.8827 201.628 31.7627 200.796 32.52V32.552C200.796 32.552 200.753 32.5733 200.668 32.616C200.582 32.648 200.486 32.696 200.38 32.76C200.273 32.824 200.177 32.8933 200.092 32.968C200.017 33.032 199.98 33.096 199.98 33.16ZM199.98 33.16L199.916 32.248L200.524 31.832L205.404 31.144C205.393 31.304 205.382 31.48 205.372 31.672C205.361 31.864 205.361 32.024 205.372 32.152C204.252 32.3227 203.35 32.4667 202.668 32.584C201.996 32.6907 201.478 32.7813 201.116 32.856C200.764 32.92 200.508 32.9787 200.348 33.032C200.188 33.0747 200.065 33.1173 199.98 33.16ZM204.428 33.704L205.324 33.4C205.537 33.88 205.74 34.408 205.932 34.984C206.134 35.5493 206.284 36.04 206.38 36.456L205.436 36.808C205.372 36.5307 205.281 36.216 205.164 35.864C205.057 35.5013 204.94 35.1333 204.812 34.76C204.684 34.376 204.556 34.024 204.428 33.704Z" fill="#25262D"/>
</g>
<g filter="url(#filter1_d_1046_2265)">
<rect x="4" y="74" width="72.9999" height="76" rx="4" fill="white" shape-rendering="crispEdges"/>
<rect x="4.5" y="74.5" width="71.9999" height="75" rx="3.5" stroke="#FAAA40" shape-rendering="crispEdges"/>
<path d="M25.428 96.568H31.652V97.688H25.428V96.568ZM25.252 105.48C25.7747 105.373 26.372 105.245 27.044 105.096C27.7267 104.936 28.4467 104.765 29.204 104.584C29.9613 104.403 30.7187 104.221 31.476 104.04L31.588 105.144C30.532 105.421 29.4653 105.693 28.388 105.96C27.3213 106.227 26.372 106.467 25.54 106.68L25.252 105.48ZM26.068 98.6L27.028 98.424C27.156 99.032 27.2733 99.6773 27.38 100.36C27.4973 101.043 27.5933 101.715 27.668 102.376C27.7533 103.027 27.812 103.619 27.844 104.152L26.836 104.328C26.8147 103.805 26.7667 103.219 26.692 102.568C26.6173 101.907 26.5267 101.229 26.42 100.536C26.3133 99.8427 26.196 99.1973 26.068 98.6ZM29.78 98.216L30.9 98.44C30.8147 98.9627 30.7187 99.5227 30.612 100.12C30.516 100.707 30.4093 101.299 30.292 101.896C30.1747 102.483 30.0573 103.043 29.94 103.576C29.8333 104.109 29.7213 104.584 29.604 105L28.708 104.792C28.8147 104.365 28.916 103.88 29.012 103.336C29.1187 102.792 29.22 102.221 29.316 101.624C29.412 101.027 29.4973 100.435 29.572 99.848C29.6573 99.2613 29.7267 98.7173 29.78 98.216ZM27.3 93.96L28.34 93.64C28.5747 94.0133 28.7987 94.424 29.012 94.872C29.2253 95.3093 29.38 95.6933 29.476 96.024L28.388 96.408C28.292 96.0773 28.1427 95.6827 27.94 95.224C27.7373 94.7547 27.524 94.3333 27.3 93.96ZM35.268 96.872H39.86V98.024H35.268V96.872ZM32.516 106.376H38.564V107.496H32.516V106.376ZM34.564 93.544H35.796V101.704H34.564V93.544ZM31.972 101.208H39.188V108.2H37.972V102.344H33.14V108.264H31.972V101.208ZM48.948 101.176H55.252V108.2H54.1V102.264H50.068V108.264H48.948V101.176ZM51.284 93.592H52.452V101.512H51.284V93.592ZM51.972 97.064H55.876V98.184H51.972V97.064ZM49.524 106.408H54.644V107.528H49.524V106.408ZM42.692 95.016V98.888H47.092V95.016H42.692ZM41.732 94.136H48.068V99.768H41.732V94.136ZM42.916 95.816L43.508 95.656C43.6467 96.04 43.764 96.4613 43.86 96.92C43.9667 97.368 44.0307 97.7573 44.052 98.088L43.412 98.264C43.4013 97.9333 43.348 97.5387 43.252 97.08C43.1667 96.6213 43.0547 96.2 42.916 95.816ZM43.492 105.048L44.308 104.968C44.404 105.405 44.4733 105.885 44.516 106.408C44.5587 106.92 44.5747 107.368 44.564 107.752L43.716 107.848C43.7373 107.475 43.7267 107.027 43.684 106.504C43.652 105.981 43.588 105.496 43.492 105.048ZM45.14 105.048L45.908 104.904C46.0787 105.309 46.2333 105.752 46.372 106.232C46.5107 106.701 46.6013 107.112 46.644 107.464L45.844 107.656C45.8013 107.293 45.716 106.872 45.588 106.392C45.46 105.901 45.3107 105.453 45.14 105.048ZM46.788 105.016L47.556 104.744C47.7907 105.139 48.0093 105.571 48.212 106.04C48.4147 106.499 48.5587 106.904 48.644 107.256L47.828 107.544C47.7533 107.203 47.6147 106.797 47.412 106.328C47.22 105.848 47.012 105.411 46.788 105.016ZM42.068 104.744L42.9 105.048C42.8147 105.549 42.692 106.088 42.532 106.664C42.372 107.229 42.164 107.704 41.908 108.088L41.044 107.72C41.2147 107.464 41.364 107.171 41.492 106.84C41.6307 106.499 41.748 106.147 41.844 105.784C41.94 105.411 42.0147 105.064 42.068 104.744ZM46.18 95.608L46.884 95.864C46.7453 96.28 46.6013 96.7227 46.452 97.192C46.3027 97.6613 46.1533 98.0507 46.004 98.36L45.492 98.168C45.5667 97.9333 45.6467 97.6667 45.732 97.368C45.828 97.0587 45.9133 96.7493 45.988 96.44C46.0733 96.1307 46.1373 95.8533 46.18 95.608ZM41.62 100.872H48.18V101.832H41.62V100.872ZM44.42 94.568H45.236V99.352H45.364V103.496H44.292V99.352H44.42V94.568ZM41.332 103.112H48.372V104.056H41.332V103.112ZM29.38 125.32V126.712H35.572V125.32H29.38ZM29.38 123.096V124.472H35.572V123.096H29.38ZM28.196 122.232H36.804V127.592H28.196V122.232ZM25.412 117.592H39.604V118.648H25.412V117.592ZM31.86 115.56H33.044V122.568H31.86V115.56ZM31.268 117.912L32.276 118.312C31.924 118.824 31.5027 119.325 31.012 119.816C30.532 120.307 30.0147 120.765 29.46 121.192C28.9053 121.619 28.3293 122.003 27.732 122.344C27.1453 122.685 26.5587 122.973 25.972 123.208C25.9187 123.112 25.844 123.005 25.748 122.888C25.652 122.771 25.556 122.659 25.46 122.552C25.364 122.435 25.2733 122.333 25.188 122.248C25.7533 122.045 26.3293 121.795 26.916 121.496C27.5027 121.187 28.068 120.84 28.612 120.456C29.156 120.072 29.652 119.667 30.1 119.24C30.5587 118.803 30.948 118.36 31.268 117.912ZM25.684 128.68H39.38V129.768H25.684V128.68ZM32.612 118.616L33.348 117.896C33.86 118.205 34.3987 118.547 34.964 118.92C35.54 119.293 36.1053 119.677 36.66 120.072C37.2253 120.456 37.748 120.835 38.228 121.208C38.708 121.571 39.124 121.907 39.476 122.216L38.676 123.08C38.356 122.781 37.956 122.445 37.476 122.072C37.0067 121.688 36.4947 121.293 35.94 120.888C35.3853 120.483 34.82 120.088 34.244 119.704C33.668 119.309 33.124 118.947 32.612 118.616ZM48.548 123.352H51.924V124.328H48.548V123.352ZM48.58 120.632H52.468V127.064H48.58V126.056H51.476V121.624H48.58V120.632ZM48.004 120.632H48.98V127.88H48.004V120.632ZM49.284 115.56L50.452 115.816C50.2493 116.563 49.9987 117.288 49.7 117.992C49.4013 118.685 49.0707 119.336 48.708 119.944C48.3453 120.541 47.9613 121.075 47.556 121.544C47.4813 121.469 47.38 121.389 47.252 121.304C47.1347 121.208 47.012 121.117 46.884 121.032C46.756 120.936 46.6387 120.856 46.532 120.792C47.1507 120.173 47.6947 119.4 48.164 118.472C48.6333 117.544 49.0067 116.573 49.284 115.56ZM48.948 117.96H54.804V119.064H48.404L48.948 117.96ZM54.452 117.96H55.604C55.604 117.96 55.604 118.003 55.604 118.088C55.604 118.163 55.604 118.248 55.604 118.344C55.604 118.44 55.5987 118.52 55.588 118.584C55.5347 120.493 55.476 122.104 55.412 123.416C55.3587 124.728 55.2947 125.8 55.22 126.632C55.156 127.464 55.0707 128.109 54.964 128.568C54.8573 129.027 54.724 129.357 54.564 129.56C54.404 129.784 54.228 129.939 54.036 130.024C53.8547 130.12 53.636 130.184 53.38 130.216C53.124 130.237 52.7933 130.248 52.388 130.248C51.9933 130.248 51.588 130.237 51.172 130.216C51.1613 130.035 51.124 129.827 51.06 129.592C50.996 129.368 50.9053 129.176 50.788 129.016C51.2573 129.059 51.684 129.08 52.068 129.08C52.452 129.091 52.7293 129.096 52.9 129.096C53.06 129.096 53.1827 129.08 53.268 129.048C53.364 129.016 53.4493 128.947 53.524 128.84C53.652 128.701 53.7587 128.413 53.844 127.976C53.94 127.528 54.0253 126.893 54.1 126.072C54.1747 125.251 54.2387 124.2 54.292 122.92C54.356 121.629 54.4093 120.061 54.452 118.216V117.96ZM41.892 120.392H46.372V121.352H41.892V120.392ZM41.892 122.504H46.388V123.448H41.892V122.504ZM41.252 118.28H47.028V119.272H41.252V118.28ZM42.372 124.632H46.372V129.304H42.372V128.296H45.396V125.64H42.372V124.632ZM41.876 124.632H42.852V130.072H41.876V124.632ZM42.9 115.976L43.748 115.464C43.9933 115.773 44.2333 116.12 44.468 116.504C44.7027 116.888 44.884 117.224 45.012 117.512L44.116 118.12C43.9987 117.832 43.8227 117.485 43.588 117.08C43.3533 116.664 43.124 116.296 42.9 115.976Z" fill="#25262D"/>
</g>
<g filter="url(#filter2_d_1046_2265)">
<rect x="85" y="74" width="72.9999" height="76" rx="4" fill="white" shape-rendering="crispEdges"/>
<rect x="85.5" y="74.5" width="71.9999" height="75" rx="3.5" stroke="#FAAA40" shape-rendering="crispEdges"/>
<path d="M114.652 100.648H115.884V106.216C115.884 106.472 115.927 106.643 116.012 106.728C116.108 106.803 116.327 106.84 116.668 106.84C116.743 106.84 116.881 106.84 117.084 106.84C117.287 106.84 117.511 106.84 117.756 106.84C118.012 106.84 118.247 106.84 118.46 106.84C118.673 106.84 118.833 106.84 118.94 106.84C119.153 106.84 119.313 106.781 119.42 106.664C119.537 106.536 119.617 106.291 119.66 105.928C119.703 105.565 119.735 105.027 119.756 104.312C119.852 104.376 119.964 104.445 120.092 104.52C120.22 104.584 120.353 104.643 120.492 104.696C120.641 104.739 120.764 104.771 120.86 104.792C120.828 105.624 120.753 106.269 120.636 106.728C120.519 107.176 120.332 107.491 120.076 107.672C119.831 107.853 119.479 107.944 119.02 107.944C118.945 107.944 118.785 107.944 118.54 107.944C118.305 107.944 118.049 107.944 117.772 107.944C117.495 107.944 117.239 107.944 117.004 107.944C116.769 107.944 116.615 107.944 116.54 107.944C116.049 107.944 115.665 107.891 115.388 107.784C115.111 107.688 114.919 107.512 114.812 107.256C114.705 107.011 114.652 106.664 114.652 106.216V100.648ZM111.036 100.824H112.284C112.209 101.763 112.092 102.621 111.932 103.4C111.772 104.168 111.511 104.856 111.148 105.464C110.796 106.072 110.295 106.6 109.644 107.048C109.004 107.507 108.167 107.891 107.132 108.2C107.089 108.104 107.025 107.992 106.94 107.864C106.865 107.747 106.78 107.624 106.684 107.496C106.599 107.379 106.513 107.283 106.428 107.208C107.388 106.941 108.156 106.616 108.732 106.232C109.319 105.837 109.767 105.379 110.076 104.856C110.396 104.323 110.62 103.725 110.748 103.064C110.887 102.392 110.983 101.645 111.036 100.824ZM114.908 97.976L115.884 97.4C116.375 97.7627 116.876 98.1787 117.388 98.648C117.9 99.1067 118.375 99.5653 118.812 100.024C119.249 100.483 119.601 100.909 119.868 101.304L118.812 101.96C118.567 101.576 118.231 101.149 117.804 100.68C117.377 100.211 116.908 99.7413 116.396 99.272C115.895 98.792 115.399 98.36 114.908 97.976ZM106.572 95.688H120.476V96.84H106.572V95.688ZM107.9 101.592C107.879 101.507 107.841 101.389 107.788 101.24C107.735 101.091 107.681 100.936 107.628 100.776C107.575 100.616 107.516 100.477 107.452 100.36C107.655 100.317 107.863 100.195 108.076 99.992C108.289 99.7787 108.54 99.5013 108.828 99.16C108.977 99 109.196 98.7333 109.484 98.36C109.783 97.9867 110.113 97.544 110.476 97.032C110.849 96.52 111.223 95.9707 111.596 95.384C111.969 94.7867 112.316 94.184 112.636 93.576L113.98 94.024C113.468 94.888 112.919 95.736 112.332 96.568C111.756 97.4 111.169 98.184 110.572 98.92C109.975 99.656 109.388 100.312 108.812 100.888V100.92C108.812 100.92 108.764 100.947 108.668 101C108.583 101.043 108.476 101.101 108.348 101.176C108.231 101.24 108.124 101.309 108.028 101.384C107.943 101.459 107.9 101.528 107.9 101.592ZM107.9 101.592L107.884 100.664L108.764 100.216L118.364 99.8C118.396 99.96 118.428 100.147 118.46 100.36C118.503 100.563 118.54 100.728 118.572 100.856C117.047 100.941 115.735 101.011 114.636 101.064C113.548 101.117 112.625 101.171 111.868 101.224C111.121 101.267 110.513 101.304 110.044 101.336C109.575 101.368 109.201 101.4 108.924 101.432C108.647 101.453 108.433 101.48 108.284 101.512C108.135 101.533 108.007 101.56 107.9 101.592ZM124.684 103.16H134.284V103.96H124.684V103.16ZM124.716 101.176H134.972V105.944H124.716V105.064H133.788V102.056H124.716V101.176ZM128.812 101.608H129.98V106.44C129.98 106.707 130.055 106.883 130.204 106.968C130.353 107.053 130.679 107.096 131.18 107.096C131.276 107.096 131.436 107.096 131.66 107.096C131.895 107.096 132.161 107.096 132.46 107.096C132.759 107.096 133.057 107.096 133.356 107.096C133.665 107.096 133.943 107.096 134.188 107.096C134.444 107.096 134.636 107.096 134.764 107.096C135.052 107.096 135.265 107.053 135.404 106.968C135.553 106.872 135.66 106.691 135.724 106.424C135.788 106.147 135.831 105.741 135.852 105.208C135.98 105.293 136.145 105.373 136.348 105.448C136.551 105.523 136.732 105.576 136.892 105.608C136.839 106.259 136.748 106.76 136.62 107.112C136.492 107.464 136.289 107.709 136.012 107.848C135.735 107.997 135.345 108.072 134.844 108.072C134.759 108.072 134.588 108.072 134.332 108.072C134.087 108.072 133.799 108.072 133.468 108.072C133.137 108.072 132.807 108.072 132.476 108.072C132.156 108.072 131.868 108.072 131.612 108.072C131.367 108.072 131.201 108.072 131.116 108.072C130.529 108.072 130.065 108.024 129.724 107.928C129.383 107.843 129.143 107.677 129.004 107.432C128.876 107.197 128.812 106.867 128.812 106.44V101.608ZM124.108 101.176H125.26V106.776H124.108V101.176ZM123.42 94.2H135.564V95.064H123.42V94.2ZM128.86 94.424H130.028V100.584H128.86V94.424ZM122.716 96.072H136.316V99.528H135.116V96.936H123.868V99.528H122.716V96.072ZM124.156 99.72C124.657 99.656 125.239 99.576 125.9 99.48C126.561 99.384 127.249 99.2827 127.964 99.176L128.012 99.928C127.393 100.067 126.785 100.195 126.188 100.312C125.591 100.429 125.031 100.541 124.508 100.648L124.156 99.72ZM124.556 97.896L124.908 97.24C125.26 97.304 125.628 97.384 126.012 97.48C126.396 97.5653 126.764 97.6613 127.116 97.768C127.479 97.8747 127.777 97.9813 128.012 98.088L127.66 98.824C127.425 98.7173 127.132 98.6053 126.78 98.488C126.428 98.3707 126.055 98.2587 125.66 98.152C125.276 98.0453 124.908 97.96 124.556 97.896ZM133.948 97.16L134.492 97.864C134.183 97.992 133.841 98.1147 133.468 98.232C133.105 98.3387 132.737 98.44 132.364 98.536C131.991 98.6213 131.649 98.696 131.34 98.76L130.908 98.152C131.217 98.0773 131.559 97.9813 131.932 97.864C132.305 97.7467 132.668 97.624 133.02 97.496C133.383 97.368 133.692 97.256 133.948 97.16ZM130.7 99.816L130.988 99.08C131.404 99.1227 131.841 99.1867 132.3 99.272C132.769 99.3573 133.217 99.4533 133.644 99.56C134.081 99.6667 134.444 99.768 134.732 99.864L134.476 100.696C134.177 100.589 133.809 100.483 133.372 100.376C132.945 100.259 132.497 100.152 132.028 100.056C131.569 99.9493 131.127 99.8693 130.7 99.816ZM113.916 121.688H119.308V122.824H113.916V121.688ZM113.468 121.688H114.668V128.056C114.668 128.376 114.732 128.584 114.86 128.68C114.988 128.776 115.271 128.824 115.708 128.824C115.804 128.824 115.985 128.824 116.252 128.824C116.519 128.824 116.812 128.824 117.132 128.824C117.463 128.824 117.767 128.824 118.044 128.824C118.332 128.824 118.54 128.824 118.668 128.824C118.967 128.824 119.185 128.76 119.324 128.632C119.463 128.493 119.559 128.237 119.612 127.864C119.676 127.48 119.724 126.915 119.756 126.168C119.852 126.232 119.964 126.296 120.092 126.36C120.22 126.424 120.353 126.483 120.492 126.536C120.631 126.589 120.759 126.627 120.876 126.648C120.823 127.512 120.727 128.184 120.588 128.664C120.46 129.144 120.252 129.48 119.964 129.672C119.676 129.864 119.265 129.96 118.732 129.96C118.657 129.96 118.513 129.96 118.3 129.96C118.087 129.96 117.841 129.96 117.564 129.96C117.297 129.96 117.025 129.96 116.748 129.96C116.481 129.96 116.241 129.96 116.028 129.96C115.815 129.96 115.671 129.96 115.596 129.96C115.052 129.96 114.625 129.907 114.316 129.8C114.007 129.693 113.788 129.501 113.66 129.224C113.532 128.957 113.468 128.568 113.468 128.056V121.688ZM113.26 116.44H119.884V123.688H118.684V117.592H113.26V116.44ZM106.956 120.312H111.772V121.256H106.956V120.312ZM106.652 122.552H112.092V123.512H106.652V122.552ZM106.172 118.056H112.588V119.048H106.172V118.056ZM107.436 124.728H111.82V129.416H107.436V128.424H110.748V125.72H107.436V124.728ZM106.844 124.728H107.916V130.152H106.844V124.728ZM108.044 115.976L108.972 115.464C109.249 115.763 109.516 116.093 109.772 116.456C110.028 116.808 110.22 117.123 110.348 117.4L109.372 117.976C109.255 117.699 109.068 117.368 108.812 116.984C108.567 116.6 108.311 116.264 108.044 115.976ZM129.66 116.312H136.22V117.288H129.66V116.312ZM129.596 118.552H135.564V119.448H129.596V118.552ZM128.06 122.936H136.652V123.992H128.06V122.936ZM129.196 116.312H130.364V123.608H129.196V116.312ZM135.324 124.36L136.252 125.096C135.825 125.459 135.372 125.827 134.892 126.2C134.423 126.563 133.991 126.867 133.596 127.112L132.94 126.52C133.185 126.328 133.457 126.109 133.756 125.864C134.055 125.608 134.343 125.347 134.62 125.08C134.897 124.813 135.132 124.573 135.324 124.36ZM131.9 123.544C132.209 124.323 132.615 125.075 133.116 125.8C133.617 126.525 134.188 127.171 134.828 127.736C135.468 128.301 136.151 128.744 136.876 129.064C136.791 129.139 136.695 129.229 136.588 129.336C136.492 129.453 136.396 129.571 136.3 129.688C136.204 129.816 136.124 129.933 136.06 130.04C135.324 129.656 134.631 129.149 133.98 128.52C133.329 127.88 132.743 127.16 132.22 126.36C131.708 125.549 131.287 124.701 130.956 123.816L131.9 123.544ZM129.676 120.712H135.676V121.624H129.676V120.712ZM128.844 130.376L128.764 129.4L129.244 128.952L132.572 127.848C132.572 128.008 132.577 128.184 132.588 128.376C132.609 128.568 132.636 128.723 132.668 128.84C131.9 129.117 131.276 129.341 130.796 129.512C130.327 129.693 129.964 129.837 129.708 129.944C129.452 130.051 129.26 130.136 129.132 130.2C129.015 130.264 128.919 130.323 128.844 130.376ZM124.572 115.576H125.596V130.28H124.572V115.576ZM122.572 118.6H127.324V119.688H123.5V126.984H122.572V118.6ZM126.78 118.6H127.708V125.672C127.708 125.885 127.681 126.072 127.628 126.232C127.585 126.392 127.495 126.525 127.356 126.632C127.217 126.717 127.052 126.776 126.86 126.808C126.668 126.829 126.433 126.84 126.156 126.84C126.145 126.691 126.108 126.52 126.044 126.328C125.98 126.125 125.911 125.949 125.836 125.8C126.028 125.811 126.193 125.816 126.332 125.816C126.481 125.816 126.583 125.816 126.636 125.816C126.732 125.805 126.78 125.747 126.78 125.64V118.6ZM128.844 130.376C128.823 130.28 128.775 130.163 128.7 130.024C128.625 129.885 128.551 129.747 128.476 129.608C128.401 129.469 128.327 129.363 128.252 129.288C128.369 129.203 128.492 129.069 128.62 128.888C128.748 128.696 128.812 128.44 128.812 128.12V123.592H129.932V129.208C129.932 129.208 129.895 129.235 129.82 129.288C129.756 129.352 129.665 129.427 129.548 129.512C129.441 129.597 129.335 129.688 129.228 129.784C129.121 129.891 129.031 129.992 128.956 130.088C128.881 130.195 128.844 130.291 128.844 130.376Z" fill="#25262D"/>
</g>
<g filter="url(#filter3_d_1046_2265)">
<rect x="166" y="74" width="72.9999" height="76" rx="4" fill="white" shape-rendering="crispEdges"/>
<rect x="166.5" y="74.5" width="71.9999" height="75" rx="3.5" stroke="#FAAA40" shape-rendering="crispEdges"/>
<path d="M190.148 98.984V101.384H198.804V98.984H190.148ZM189.108 98.152H199.892V102.2H189.108V98.152ZM191.732 96.472H197.316V97.336H191.732V96.472ZM193.94 98.456H194.964V101.8H193.94V98.456ZM191.108 99.464L191.988 99.16C192.191 99.448 192.377 99.7627 192.548 100.104C192.729 100.435 192.857 100.728 192.932 100.984L192.02 101.32C191.956 101.064 191.839 100.76 191.668 100.408C191.497 100.056 191.311 99.7413 191.108 99.464ZM196.884 99.096L197.908 99.432C197.727 99.7733 197.54 100.115 197.348 100.456C197.156 100.797 196.98 101.085 196.82 101.32L195.972 101.032C196.121 100.765 196.287 100.445 196.468 100.072C196.649 99.6987 196.788 99.3733 196.884 99.096ZM190.052 102.968H199.108V108.216H197.892V103.832H191.236V108.264H190.052V102.968ZM190.756 104.904H198.404V105.768H190.756V104.904ZM190.772 106.872H198.42V107.72H190.772V106.872ZM194.388 93.496L195.444 93.896C194.889 94.6213 194.201 95.2827 193.38 95.88C192.559 96.4667 191.668 96.984 190.708 97.432C189.748 97.88 188.777 98.264 187.796 98.584C187.753 98.4987 187.689 98.3973 187.604 98.28C187.529 98.1627 187.444 98.0453 187.348 97.928C187.263 97.8107 187.183 97.7147 187.108 97.64C188.079 97.3733 189.023 97.0427 189.94 96.648C190.868 96.2533 191.716 95.7893 192.484 95.256C193.252 94.7227 193.887 94.136 194.388 93.496ZM195.076 94.04C195.449 94.424 195.897 94.7973 196.42 95.16C196.953 95.512 197.529 95.8427 198.148 96.152C198.767 96.4507 199.407 96.7173 200.068 96.952C200.74 97.1867 201.401 97.3787 202.052 97.528C201.913 97.6347 201.769 97.784 201.62 97.976C201.481 98.1573 201.364 98.3227 201.268 98.472C200.628 98.2907 199.972 98.0667 199.3 97.8C198.628 97.5227 197.972 97.208 197.332 96.856C196.703 96.504 196.116 96.1253 195.572 95.72C195.028 95.3147 194.553 94.888 194.148 94.44L195.076 94.04ZM206.74 95.16V96.808H214.34V95.16H206.74ZM205.54 94.184H215.604V97.8H205.54V94.184ZM206.036 101.576V102.712H214.996V101.576H206.036ZM206.036 103.56V104.712H214.996V103.56H206.036ZM206.036 99.608V100.728H214.996V99.608H206.036ZM204.852 98.712H216.228V105.608H204.852V98.712ZM207.892 105.576L209.012 106.312C208.585 106.568 208.084 106.824 207.508 107.08C206.943 107.336 206.356 107.565 205.748 107.768C205.151 107.981 204.569 108.157 204.004 108.296C203.908 108.168 203.769 108.013 203.588 107.832C203.417 107.661 203.263 107.523 203.124 107.416C203.689 107.277 204.276 107.107 204.884 106.904C205.492 106.701 206.063 106.488 206.596 106.264C207.129 106.029 207.561 105.8 207.892 105.576ZM211.812 106.424L212.836 105.64C213.401 105.8 213.993 105.987 214.612 106.2C215.231 106.413 215.828 106.632 216.404 106.856C216.991 107.069 217.487 107.267 217.892 107.448L216.868 108.312C216.473 108.12 215.983 107.907 215.396 107.672C214.82 107.448 214.217 107.224 213.588 107C212.959 106.776 212.367 106.584 211.812 106.424ZM188.036 118.424H200.932V125.944H199.7V119.592H189.236V126.024H188.036V118.424ZM188.676 123.848H200.42V125.032H188.676V123.848ZM193.828 115.56H195.092V130.264H193.828V115.56ZM207.22 120.024H208.468V127.96C208.468 128.333 208.532 128.579 208.66 128.696C208.799 128.803 209.097 128.856 209.556 128.856C209.673 128.856 209.865 128.856 210.132 128.856C210.409 128.856 210.713 128.856 211.044 128.856C211.385 128.856 211.7 128.856 211.988 128.856C212.287 128.856 212.505 128.856 212.644 128.856C212.975 128.856 213.22 128.771 213.38 128.6C213.551 128.419 213.668 128.088 213.732 127.608C213.807 127.128 213.86 126.429 213.892 125.512C213.999 125.587 214.116 125.661 214.244 125.736C214.383 125.811 214.521 125.875 214.66 125.928C214.809 125.981 214.937 126.024 215.044 126.056C214.991 127.069 214.895 127.864 214.756 128.44C214.617 129.005 214.388 129.405 214.068 129.64C213.759 129.875 213.3 129.992 212.692 129.992C212.617 129.992 212.468 129.992 212.244 129.992C212.031 129.992 211.78 129.992 211.492 129.992C211.204 129.992 210.916 129.992 210.628 129.992C210.351 129.992 210.105 129.992 209.892 129.992C209.679 129.992 209.535 129.992 209.46 129.992C208.884 129.992 208.431 129.933 208.1 129.816C207.78 129.699 207.551 129.491 207.412 129.192C207.284 128.893 207.22 128.483 207.22 127.96V120.024ZM204.66 121.224L205.812 121.448C205.737 122.077 205.631 122.776 205.492 123.544C205.353 124.312 205.193 125.069 205.012 125.816C204.831 126.552 204.633 127.208 204.42 127.784L203.204 127.272C203.439 126.728 203.652 126.109 203.844 125.416C204.036 124.712 204.201 123.997 204.34 123.272C204.479 122.536 204.585 121.853 204.66 121.224ZM214.676 121.24L215.796 120.808C216.105 121.448 216.404 122.131 216.692 122.856C216.98 123.571 217.236 124.275 217.46 124.968C217.684 125.661 217.849 126.285 217.956 126.84L216.772 127.32C216.665 126.765 216.505 126.136 216.292 125.432C216.079 124.728 215.833 124.013 215.556 123.288C215.279 122.552 214.985 121.869 214.676 121.24ZM207.972 116.904L208.788 116.12C209.289 116.461 209.817 116.845 210.372 117.272C210.927 117.688 211.449 118.109 211.94 118.536C212.431 118.952 212.831 119.325 213.14 119.656L212.276 120.568C211.977 120.227 211.588 119.843 211.108 119.416C210.628 118.989 210.111 118.552 209.556 118.104C209.012 117.656 208.484 117.256 207.972 116.904Z" fill="#25262D"/>
</g>
<defs>
<filter id="filter0_d_1046_2265" x="0" y="0" width="243" height="62" filterUnits="userSpaceOnUse" color-interpolation-filters="sRGB">
<feFlood flood-opacity="0" result="BackgroundImageFix"/>
<feColorMatrix in="SourceAlpha" type="matrix" values="0 0 0 0 0 0 0 0 0 0 0 0 0 0 0 0 0 0 127 0" result="hardAlpha"/>
<feOffset/>
<feGaussianBlur stdDeviation="2"/>
<feComposite in2="hardAlpha" operator="out"/>
<feColorMatrix type="matrix" values="0 0 0 0 0.929412 0 0 0 0 0.54902 0 0 0 0 0.0392157 0 0 0 0.4 0"/>
<feBlend mode="normal" in2="BackgroundImageFix" result="effect1_dropShadow_1046_2265"/>
<feBlend mode="normal" in="SourceGraphic" in2="effect1_dropShadow_1046_2265" result="shape"/>
</filter>
<filter id="filter1_d_1046_2265" x="0" y="70" width="81" height="84" filterUnits="userSpaceOnUse" color-interpolation-filters="sRGB">
<feFlood flood-opacity="0" result="BackgroundImageFix"/>
<feColorMatrix in="SourceAlpha" type="matrix" values="0 0 0 0 0 0 0 0 0 0 0 0 0 0 0 0 0 0 127 0" result="hardAlpha"/>
<feOffset/>
<feGaussianBlur stdDeviation="2"/>
<feComposite in2="hardAlpha" operator="out"/>
<feColorMatrix type="matrix" values="0 0 0 0 0.929412 0 0 0 0 0.54902 0 0 0 0 0.0392157 0 0 0 0.4 0"/>
<feBlend mode="normal" in2="BackgroundImageFix" result="effect1_dropShadow_1046_2265"/>
<feBlend mode="normal" in="SourceGraphic" in2="effect1_dropShadow_1046_2265" result="shape"/>
</filter>
<filter id="filter2_d_1046_2265" x="81" y="70" width="81" height="84" filterUnits="userSpaceOnUse" color-interpolation-filters="sRGB">
<feFlood flood-opacity="0" result="BackgroundImageFix"/>
<feColorMatrix in="SourceAlpha" type="matrix" values="0 0 0 0 0 0 0 0 0 0 0 0 0 0 0 0 0 0 127 0" result="hardAlpha"/>
<feOffset/>
<feGaussianBlur stdDeviation="2"/>
<feComposite in2="hardAlpha" operator="out"/>
<feColorMatrix type="matrix" values="0 0 0 0 0.929412 0 0 0 0 0.54902 0 0 0 0 0.0392157 0 0 0 0.4 0"/>
<feBlend mode="normal" in2="BackgroundImageFix" result="effect1_dropShadow_1046_2265"/>
<feBlend mode="normal" in="SourceGraphic" in2="effect1_dropShadow_1046_2265" result="shape"/>
</filter>
<filter id="filter3_d_1046_2265" x="162" y="70" width="81" height="84" filterUnits="userSpaceOnUse" color-interpolation-filters="sRGB">
<feFlood flood-opacity="0" result="BackgroundImageFix"/>
<feColorMatrix in="SourceAlpha" type="matrix" values="0 0 0 0 0 0 0 0 0 0 0 0 0 0 0 0 0 0 127 0" result="hardAlpha"/>
<feOffset/>
<feGaussianBlur stdDeviation="2"/>
<feComposite in2="hardAlpha" operator="out"/>
<feColorMatrix type="matrix" values="0 0 0 0 0.929412 0 0 0 0 0.54902 0 0 0 0 0.0392157 0 0 0 0.4 0"/>
<feBlend mode="normal" in2="BackgroundImageFix" result="effect1_dropShadow_1046_2265"/>
<feBlend mode="normal" in="SourceGraphic" in2="effect1_dropShadow_1046_2265" result="shape"/>
</filter>
</defs>
</svg>
