<svg width="40" height="40" viewBox="0 0 40 40" fill="none" xmlns="http://www.w3.org/2000/svg">
<path d="M15 22.1428H17.8571V25H15V22.1428Z" fill="url(#paint0_linear_1046_2198)"/>
<path d="M21.551 23.5715L23.5715 21.551L25.5916 23.5715L23.5715 25.5919L21.551 23.5715Z" fill="url(#paint1_linear_1046_2198)"/>
<path d="M22.1428 15H25V17.8571H22.1428V15Z" fill="url(#paint2_linear_1046_2198)"/>
<path d="M31.4286 2.14286C31.4286 0.959473 30.4691 0 29.2857 0H10.7143C9.53088 0 8.57141 0.959473 8.57141 2.14286V2.85714H31.4286V2.14286ZM17.8571 2.14286H17.1428C16.7484 2.14286 16.4286 1.82303 16.4286 1.42857C16.4286 1.03411 16.7484 0.714286 17.1428 0.714286H17.8571C18.2516 0.714286 18.5714 1.03411 18.5714 1.42857C18.5714 1.82303 18.2516 2.14286 17.8571 2.14286ZM22.8571 2.14286H20C19.6055 2.14286 19.2857 1.82303 19.2857 1.42857C19.2857 1.03411 19.6055 0.714286 20 0.714286H22.8571C23.2516 0.714286 23.5714 1.03411 23.5714 1.42857C23.5714 1.82303 23.2516 2.14286 22.8571 2.14286Z" fill="url(#paint3_linear_1046_2198)"/>
<path d="M15 15H17.8571V17.8571H15V15Z" fill="url(#paint4_linear_1046_2198)"/>
<path d="M31.4286 4.28577H8.57141V35.7143H31.4286V4.28577ZM20.7143 14.2858C20.7143 13.8913 21.0341 13.5715 21.4286 13.5715H25.7143C26.1087 13.5715 26.4286 13.8913 26.4286 14.2858V18.5715C26.4286 18.9659 26.1087 19.2858 25.7143 19.2858H21.4286C21.0341 19.2858 20.7143 18.9659 20.7143 18.5715V14.2858ZM19.2857 25.7143C19.2857 26.1088 18.9659 26.4286 18.5714 26.4286H14.2857C13.8912 26.4286 13.5714 26.1088 13.5714 25.7143V21.4286C13.5714 21.0342 13.8912 20.7143 14.2857 20.7143H18.5714C18.9659 20.7143 19.2857 21.0342 19.2857 21.4286V25.7143ZM19.2857 18.5715C19.2857 18.9659 18.9659 19.2858 18.5714 19.2858H14.2857C13.8912 19.2858 13.5714 18.9659 13.5714 18.5715V14.2858C13.5714 13.8913 13.8912 13.5715 14.2857 13.5715H18.5714C18.9659 13.5715 19.2857 13.8913 19.2857 14.2858V18.5715ZM27.1073 24.0765L24.0764 27.1073C23.7974 27.386 23.3454 27.386 23.0664 27.1073L20.0356 24.0765C19.7569 23.7975 19.7569 23.3455 20.0356 23.0665L23.0664 20.0356C23.3454 19.757 23.7974 19.757 24.0764 20.0356L27.1073 23.0665C27.3859 23.3455 27.3859 23.7975 27.1073 24.0765Z" fill="url(#paint5_linear_1046_2198)"/>
<path d="M31.4286 37.1428H8.57141V37.8571C8.57141 39.0405 9.53088 40 10.7143 40H29.2857C30.4691 40 31.4286 39.0405 31.4286 37.8571V37.1428ZM21.4286 39.2857H18.5714C18.1769 39.2857 17.8571 38.9659 17.8571 38.5714C17.8571 38.1769 18.1769 37.8571 18.5714 37.8571H21.4286C21.823 37.8571 22.1428 38.1769 22.1428 38.5714C22.1428 38.9659 21.823 39.2857 21.4286 39.2857Z" fill="url(#paint6_linear_1046_2198)"/>
<defs>
<linearGradient id="paint0_linear_1046_2198" x1="15" y1="24.0842" x2="17.8571" y2="24.0842" gradientUnits="userSpaceOnUse">
<stop stop-color="#7AADDA"/>
<stop offset="1" stop-color="#83CADE"/>
</linearGradient>
<linearGradient id="paint1_linear_1046_2198" x1="21.551" y1="24.2967" x2="25.5916" y2="24.2967" gradientUnits="userSpaceOnUse">
<stop stop-color="#7AADDA"/>
<stop offset="1" stop-color="#83CADE"/>
</linearGradient>
<linearGradient id="paint2_linear_1046_2198" x1="22.1428" y1="16.9414" x2="25" y2="16.9414" gradientUnits="userSpaceOnUse">
<stop stop-color="#7AADDA"/>
<stop offset="1" stop-color="#83CADE"/>
</linearGradient>
<linearGradient id="paint3_linear_1046_2198" x1="8.57141" y1="1.94139" x2="31.4286" y2="1.94139" gradientUnits="userSpaceOnUse">
<stop stop-color="#7AADDA"/>
<stop offset="1" stop-color="#83CADE"/>
</linearGradient>
<linearGradient id="paint4_linear_1046_2198" x1="15" y1="16.9414" x2="17.8571" y2="16.9414" gradientUnits="userSpaceOnUse">
<stop stop-color="#7AADDA"/>
<stop offset="1" stop-color="#83CADE"/>
</linearGradient>
<linearGradient id="paint5_linear_1046_2198" x1="8.57141" y1="25.6411" x2="31.4286" y2="25.6411" gradientUnits="userSpaceOnUse">
<stop stop-color="#7AADDA"/>
<stop offset="1" stop-color="#83CADE"/>
</linearGradient>
<linearGradient id="paint6_linear_1046_2198" x1="8.57141" y1="39.0842" x2="31.4286" y2="39.0842" gradientUnits="userSpaceOnUse">
<stop stop-color="#7AADDA"/>
<stop offset="1" stop-color="#83CADE"/>
</linearGradient>
</defs>
</svg>
