<svg width="46" height="46" viewBox="0 0 46 46" fill="none" xmlns="http://www.w3.org/2000/svg">
<path d="M37.9501 18.249L39.3947 16.8187L39.1432 14.5331L36.6276 12.0102L34.3419 11.7659L32.9116 13.1962L37.9501 18.249Z" fill="url(#paint0_linear_1046_2214)"/>
<path d="M40.1494 18.0981L38.985 19.2624C38.7119 19.534 38.3424 19.6865 37.9572 19.6865C37.572 19.6865 37.2025 19.534 36.9294 19.2624L31.8909 14.224C31.6215 13.9512 31.4705 13.5832 31.4705 13.1998C31.4705 12.8164 31.6215 12.4484 31.8909 12.1756L33.0625 11.0112L30.3097 8.26557C30.238 8.19376 30.1528 8.1368 30.0591 8.09793C29.9654 8.05907 29.8649 8.03906 29.7634 8.03906C29.662 8.03906 29.5615 8.05907 29.4678 8.09793C29.374 8.1368 29.2889 8.19376 29.2172 8.26557L27.9594 9.52338L13.4263 24.0565C13.3535 24.1277 13.2957 24.2126 13.2562 24.3064C13.2167 24.4002 13.1964 24.501 13.1964 24.6028C13.1964 24.7045 13.2167 24.8053 13.2562 24.8991C13.2957 24.9929 13.3535 25.0779 13.4263 25.149L24.7466 36.4765L26.0116 37.7415C26.1582 37.8838 26.3549 37.9628 26.5593 37.9615C26.7636 37.9601 26.9593 37.8786 27.1041 37.7343L42.895 21.9434C42.9668 21.8717 43.0238 21.7865 43.0626 21.6928C43.1015 21.5991 43.1215 21.4986 43.1215 21.3971C43.1215 21.2957 43.1015 21.1952 43.0626 21.1015C43.0238 21.0077 42.9668 20.9226 42.895 20.8509L40.1494 18.0981ZM26.0906 15.2159C26.185 15.2149 26.2787 15.2326 26.3662 15.2678C26.4538 15.3031 26.5336 15.3552 26.601 15.4213C26.6684 15.4874 26.7221 15.5661 26.7591 15.6529C26.7961 15.7398 26.8156 15.8331 26.8166 15.9274L26.8309 17.0487L29.6844 16.9049C29.8742 16.8984 30.0592 16.966 30.2001 17.0934C30.3409 17.2209 30.4267 17.3982 30.4391 17.5878C30.4439 17.6822 30.4301 17.7766 30.3984 17.8657C30.3666 17.9547 30.3177 18.0367 30.2542 18.1068C30.1908 18.1769 30.1142 18.2338 30.0287 18.2742C29.9433 18.3147 29.8507 18.3378 29.7563 18.3424L26.1553 18.5221H26.1194C25.9303 18.521 25.7492 18.4459 25.6149 18.3129C25.4805 18.1799 25.4036 17.9996 25.4006 17.8106L25.3791 15.949C25.3772 15.854 25.3941 15.7596 25.4289 15.6712C25.4637 15.5828 25.5157 15.5022 25.5819 15.434C25.6481 15.3658 25.7271 15.3114 25.8144 15.274C25.9018 15.2366 25.9956 15.2168 26.0906 15.2159ZM22.5113 18.7953H22.5256C22.7146 18.7965 22.8956 18.8717 23.0299 19.0047C23.1642 19.1376 23.2412 19.3178 23.2444 19.5068L23.2516 20.6209L26.105 20.4843C26.2949 20.4777 26.4798 20.5454 26.6207 20.6728C26.7616 20.8003 26.8473 20.9776 26.8597 21.1671C26.8645 21.2615 26.8507 21.356 26.819 21.445C26.7873 21.5341 26.7383 21.616 26.6749 21.6861C26.6114 21.7562 26.5348 21.8131 26.4493 21.8536C26.3639 21.894 26.2713 21.9172 26.1769 21.9218L22.5759 22.0943H22.5472C22.4531 22.0954 22.3598 22.0777 22.2726 22.0424C22.1854 22.0071 22.106 21.9549 22.0392 21.8887C21.9723 21.8225 21.9193 21.7437 21.8831 21.6568C21.8469 21.57 21.8283 21.4768 21.8284 21.3828L21.8069 19.5212C21.8048 19.4271 21.8214 19.3335 21.8558 19.2459C21.8902 19.1583 21.9416 19.0784 22.0072 19.0108C22.0727 18.9433 22.151 18.8895 22.2376 18.8524C22.3241 18.8154 22.4171 18.796 22.5113 18.7953ZM18.9678 25.6737C18.7788 25.6726 18.5977 25.5975 18.4633 25.4645C18.329 25.3315 18.2521 25.1512 18.2491 24.9621L18.2275 23.1006C18.2256 23.0056 18.2425 22.9112 18.2774 22.8228C18.3122 22.7344 18.3642 22.6537 18.4303 22.5856C18.4965 22.5174 18.5756 22.463 18.6629 22.4256C18.7502 22.3881 18.8441 22.3684 18.9391 22.3674H18.9463C19.1356 22.3674 19.3174 22.4422 19.452 22.5754C19.5866 22.7087 19.6631 22.8896 19.665 23.079L19.6794 24.2003L22.5328 24.0565C22.7227 24.0499 22.9076 24.1175 23.0485 24.245C23.1894 24.3725 23.2751 24.5497 23.2875 24.7393C23.2923 24.8337 23.2785 24.9282 23.2468 25.0172C23.2151 25.1063 23.1661 25.1882 23.1027 25.2583C23.0392 25.3284 22.9626 25.3853 22.8772 25.4258C22.7917 25.4662 22.6991 25.4894 22.6047 25.494L19.0038 25.6737H18.9678ZM28.3188 32.9834C28.2524 33.0516 28.173 33.1058 28.0854 33.1428C27.9978 33.1798 27.9036 33.1989 27.8084 33.199C27.6165 33.1974 27.433 33.1199 27.2981 32.9834L22.6119 28.2971C22.4772 28.1614 22.4017 27.978 22.4017 27.7868C22.4017 27.5956 22.4772 27.4122 22.6119 27.2765C22.7465 27.1426 22.9287 27.0675 23.1186 27.0675C23.3085 27.0675 23.4906 27.1426 23.6253 27.2765L28.3188 31.9699C28.4526 32.1046 28.5278 32.2868 28.5278 32.4767C28.5278 32.6665 28.4526 32.8487 28.3188 32.9834ZM31.8909 29.4112C31.7563 29.5451 31.5741 29.6202 31.3842 29.6202C31.1943 29.6202 31.0122 29.5451 30.8775 29.4112L26.1841 24.7178C26.0502 24.5831 25.9751 24.4009 25.9751 24.211C25.9751 24.0212 26.0502 23.839 26.1841 23.7043C26.3198 23.5697 26.5032 23.4941 26.6944 23.4941C26.8856 23.4941 27.069 23.5697 27.2047 23.7043L31.8909 28.3906C32.0256 28.5263 32.1012 28.7097 32.1012 28.9009C32.1012 29.0921 32.0256 29.2755 31.8909 29.4112ZM35.4703 25.8318C35.4039 25.9 35.3246 25.9542 35.237 25.9912C35.1493 26.0283 35.0551 26.0474 34.96 26.0474C34.7681 26.0459 34.5846 25.9683 34.4497 25.8318L29.7634 21.1456C29.6288 21.0099 29.5532 20.8264 29.5532 20.6353C29.5532 20.4441 29.6288 20.2606 29.7634 20.1249C29.8981 19.9911 30.0803 19.9159 30.2702 19.9159C30.46 19.9159 30.6422 19.9911 30.7769 20.1249L35.4703 24.8184C35.6042 24.953 35.6793 25.1352 35.6793 25.3251C35.6793 25.515 35.6042 25.6971 35.4703 25.8318Z" fill="url(#paint1_linear_1046_2214)"/>
<path d="M4.75818 38.2446C4.75818 38.4353 4.8339 38.6181 4.9687 38.7529C5.10349 38.8877 5.2863 38.9634 5.47693 38.9634H20.6066C20.5185 38.9021 20.4367 38.8323 20.3622 38.7549L19.1332 37.5259H5.47693C5.2863 37.5259 5.10349 37.6016 4.9687 37.7364C4.8339 37.8712 4.75818 38.054 4.75818 38.2446Z" fill="url(#paint2_linear_1046_2214)"/>
<path d="M26.4356 9.01308L25.6809 8.25839C25.5347 8.11329 25.337 8.03186 25.131 8.03186C24.925 8.03186 24.7274 8.11329 24.5812 8.25839L8.79025 24.0493C8.64515 24.1955 8.56372 24.3932 8.56372 24.5992C8.56372 24.8052 8.64515 25.0028 8.79025 25.149L17.2499 33.6087L21.3468 37.7056C21.3612 37.72 21.3756 37.7271 21.3828 37.7415L21.3971 37.7559C21.5453 37.8914 21.7398 37.9647 21.9405 37.9607C22.1412 37.9566 22.3327 37.8756 22.4753 37.7343L23.2228 36.9868L12.4056 26.1696C11.9913 25.7548 11.7587 25.1926 11.7587 24.6064C11.7587 24.0201 11.9913 23.4579 12.4056 23.0431L26.4356 9.01308Z" fill="url(#paint3_linear_1046_2214)"/>
<path d="M16.4091 34.8019L14.9716 33.3644H10.9034C10.7128 33.3644 10.53 33.4401 10.3952 33.5749C10.2604 33.7097 10.1847 33.8925 10.1847 34.0831C10.1847 34.2738 10.2604 34.4566 10.3952 34.5914C10.53 34.7262 10.7128 34.8019 10.9034 34.8019H16.4091Z" fill="url(#paint4_linear_1046_2214)"/>
<path d="M8.91255 33.3622H7.15161C6.96099 33.3622 6.77817 33.4379 6.64338 33.5727C6.50859 33.7075 6.43286 33.8903 6.43286 34.0809C6.43286 34.2716 6.50859 34.4544 6.64338 34.5892C6.77817 34.724 6.96099 34.7997 7.15161 34.7997H8.91255C9.10317 34.7997 9.28599 34.724 9.42078 34.5892C9.55557 34.4544 9.6313 34.2716 9.6313 34.0809C9.6313 33.8903 9.55557 33.7075 9.42078 33.5727C9.28599 33.4379 9.10317 33.3622 8.91255 33.3622Z" fill="url(#paint5_linear_1046_2214)"/>
<path d="M2.15625 37.5281C1.96563 37.5281 1.78281 37.6038 1.64802 37.7386C1.51323 37.8734 1.4375 38.0562 1.4375 38.2468C1.4375 38.4375 1.51323 38.6203 1.64802 38.7551C1.78281 38.8898 1.96563 38.9656 2.15625 38.9656H3.37812C3.56875 38.9656 3.75157 38.8898 3.88636 38.7551C4.02115 38.6203 4.09687 38.4375 4.09687 38.2468C4.09687 38.0562 4.02115 37.8734 3.88636 37.7386C3.75157 37.6038 3.56875 37.5281 3.37812 37.5281H2.15625Z" fill="url(#paint6_linear_1046_2214)"/>
<defs>
<linearGradient id="paint0_linear_1046_2214" x1="32.9116" y1="16.1711" x2="39.3947" y2="16.1711" gradientUnits="userSpaceOnUse">
<stop stop-color="#7AADDA"/>
<stop offset="1" stop-color="#83CADE"/>
</linearGradient>
<linearGradient id="paint1_linear_1046_2214" x1="13.1964" y1="28.371" x2="43.1215" y2="28.371" gradientUnits="userSpaceOnUse">
<stop stop-color="#7AADDA"/>
<stop offset="1" stop-color="#83CADE"/>
</linearGradient>
<linearGradient id="paint2_linear_1046_2214" x1="4.75818" y1="38.5026" x2="20.6066" y2="38.5026" gradientUnits="userSpaceOnUse">
<stop stop-color="#7AADDA"/>
<stop offset="1" stop-color="#83CADE"/>
</linearGradient>
<linearGradient id="paint3_linear_1046_2214" x1="8.56372" y1="28.3682" x2="26.4356" y2="28.3682" gradientUnits="userSpaceOnUse">
<stop stop-color="#7AADDA"/>
<stop offset="1" stop-color="#83CADE"/>
</linearGradient>
<linearGradient id="paint4_linear_1046_2214" x1="10.1847" y1="34.3411" x2="16.4091" y2="34.3411" gradientUnits="userSpaceOnUse">
<stop stop-color="#7AADDA"/>
<stop offset="1" stop-color="#83CADE"/>
</linearGradient>
<linearGradient id="paint5_linear_1046_2214" x1="6.43286" y1="34.3389" x2="9.6313" y2="34.3389" gradientUnits="userSpaceOnUse">
<stop stop-color="#7AADDA"/>
<stop offset="1" stop-color="#83CADE"/>
</linearGradient>
<linearGradient id="paint6_linear_1046_2214" x1="1.4375" y1="38.5048" x2="4.09687" y2="38.5048" gradientUnits="userSpaceOnUse">
<stop stop-color="#7AADDA"/>
<stop offset="1" stop-color="#83CADE"/>
</linearGradient>
</defs>
</svg>
