<svg width="28" height="28" viewBox="0 0 28 28" fill="none" xmlns="http://www.w3.org/2000/svg">
<path fill-rule="evenodd" clip-rule="evenodd" d="M13.6149 11.6547C13.6372 12.4211 13.1676 13.1161 12.4482 13.3813C13.3853 13.6346 14.0146 14.5126 13.9532 15.4813C13.9532 17.8147 11.3982 17.8847 11.0249 17.8847H7.02325V9.60134H10.9666C13.5216 9.60134 13.6149 11.0247 13.6149 11.6547ZM10.5582 11.048H8.84325V12.9847H10.6982C10.9797 13.0185 11.2621 12.9287 11.4724 12.7386C11.6827 12.5484 11.8003 12.2765 11.7949 11.993C11.7949 11.0155 10.8333 11.041 10.5941 11.0473C10.5792 11.0477 10.5671 11.048 10.5582 11.048ZM10.7916 16.508H8.84325V14.1747H10.8149C11.1496 14.1308 11.487 14.234 11.7398 14.4578C11.9926 14.6815 12.1361 15.0038 12.1332 15.3413C12.1332 16.473 10.9666 16.473 10.7916 16.473V16.508Z" fill="#769BD9"/>
<path d="M19.2499 10.3713H16.1583V11.1297H19.2499V10.3713Z" fill="#769BD9"/>
<path fill-rule="evenodd" clip-rule="evenodd" d="M15.6998 12.6299C16.2462 12.0746 17.0015 11.7756 17.7799 11.8063C19.8799 11.8063 20.5332 13.5797 20.4866 15.0847H16.5082C16.4574 15.463 16.5809 15.8439 16.8439 16.1206C17.1069 16.3972 17.4812 16.5397 17.8616 16.508C18.3602 16.5105 18.8152 16.2239 19.0282 15.773H20.3232C20.0351 16.9466 18.9377 17.7375 17.7332 17.6397C16.9574 17.6756 16.2036 17.3765 15.6634 16.8184C15.1233 16.2604 14.8488 15.4972 14.9099 14.723C14.8666 13.9452 15.1534 13.1851 15.6998 12.6299ZM16.5549 13.7663C16.5113 13.8861 16.4877 14.0122 16.4849 14.1397H18.9466C18.9282 13.8142 18.8055 13.5033 18.5966 13.253C18.365 13.0415 18.058 12.9322 17.7449 12.9497C17.5364 12.9408 17.3286 12.9808 17.1382 13.0663C16.9846 13.141 16.8491 13.2486 16.7416 13.3813C16.6541 13.4958 16.5907 13.6268 16.5549 13.7663Z" fill="#769BD9"/>
<path fill-rule="evenodd" clip-rule="evenodd" d="M20.4866 2.33301H6.99992C4.42259 2.33301 2.33325 4.42235 2.33325 6.99967V20.4863C2.33325 23.0637 4.42259 25.153 6.99992 25.153H20.4866C23.0639 25.153 25.1533 23.0637 25.1533 20.4863V6.99967C25.1533 4.42235 23.0639 2.33301 20.4866 2.33301ZM23.4033 20.4863C23.4033 22.0972 22.0974 23.403 20.4866 23.403H6.99992C5.38909 23.403 4.08325 22.0972 4.08325 20.4863V6.99967C4.08325 5.38884 5.38909 4.08301 6.99992 4.08301H20.4866C22.0974 4.08301 23.4033 5.38884 23.4033 6.99967V20.4863Z" fill="#769BD9"/>
</svg>
